<svg width="40" height="40" viewBox="0 0 40 40" fill="none" xmlns="http://www.w3.org/2000/svg" class="h-8 w-8 text-white"><path fill-rule="evenodd" clip-rule="evenodd" d="M23.0134 14.0784C21.0106 13.8562 18.9894 13.8562 16.9867 14.0784C15.49 14.245 14.2767 15.425 14.1 16.94C13.8622 18.9731 13.8622 21.027 14.1 23.06C14.2767 24.5767 15.49 25.7534 16.9867 25.9217C18.9734 26.1434 21.0267 26.1434 23.0134 25.9217C23.7471 25.841 24.4318 25.5142 24.956 24.9945C25.4802 24.4749 25.8129 23.793 25.9 23.06C26.1384 21.0267 26.1384 18.9734 25.9 16.94C25.8129 16.2071 25.4802 15.5252 24.956 15.0055C24.4318 14.4859 23.7471 14.1591 23.0134 14.0784ZM17.2634 16.5634C19.0667 16.3634 20.9334 16.3634 22.7367 16.5634C22.9085 16.5823 23.0689 16.6583 23.1925 16.7791C23.316 16.9 23.3956 17.0587 23.4184 17.23C23.6334 19.07 23.6334 20.93 23.4184 22.77C23.3955 22.9416 23.3157 23.1005 23.1918 23.2214C23.068 23.3422 22.9071 23.4181 22.735 23.4367C20.9166 23.6369 19.0818 23.6369 17.2634 23.4367C17.0916 23.4177 16.9311 23.3417 16.8076 23.2209C16.684 23.1001 16.6045 22.9413 16.5817 22.77C16.3663 20.9296 16.3663 19.0704 16.5817 17.23C16.6046 17.0585 16.6843 16.8995 16.8082 16.7787C16.9321 16.6578 17.0929 16.582 17.265 16.5634" fill="currentColor"></path><path fill-rule="evenodd" clip-rule="evenodd" d="M26.25 5C26.25 4.66848 26.1183 4.35054 25.8839 4.11612C25.6495 3.8817 25.3315 3.75 25 3.75C24.6685 3.75 24.3505 3.8817 24.1161 4.11612C23.8817 4.35054 23.75 4.66848 23.75 5V9.20667C22.9177 9.14823 22.0841 9.10933 21.25 9.09V6.66667C21.25 6.33515 21.1183 6.0172 20.8839 5.78278C20.6495 5.54836 20.3315 5.41667 20 5.41667C19.6685 5.41667 19.3505 5.54836 19.1161 5.78278C18.8817 6.0172 18.75 6.33515 18.75 6.66667V9.09C17.9159 9.10933 17.0823 9.14823 16.25 9.20667V5C16.25 4.66848 16.1183 4.35054 15.8839 4.11612C15.6495 3.8817 15.3315 3.75 15 3.75C14.6685 3.75 14.3505 3.8817 14.1161 4.11612C13.8817 4.35054 13.75 4.66848 13.75 5V9.45333C12.6845 9.64745 11.7041 10.1633 10.9407 10.9315C10.1772 11.6997 9.66748 12.6833 9.48 13.75H5C4.66848 13.75 4.35054 13.8817 4.11612 14.1161C3.8817 14.3505 3.75 14.6685 3.75 15C3.75 15.3315 3.8817 15.6495 4.11612 15.8839C4.35054 16.1183 4.66848 16.25 5 16.25H9.22833C9.16833 17.0833 9.12778 17.9167 9.10667 18.75H6.66667C6.33515 18.75 6.0172 18.8817 5.78278 19.1161C5.54836 19.3505 5.41667 19.6685 5.41667 20C5.41667 20.3315 5.54836 20.6495 5.78278 20.8839C6.0172 21.1183 6.33515 21.25 6.66667 21.25H9.10667C9.12889 22.0833 9.16944 22.9167 9.22833 23.75H5C4.66848 23.75 4.35054 23.8817 4.11612 24.1161C3.8817 24.3505 3.75 24.6685 3.75 25C3.75 25.3315 3.8817 25.6495 4.11612 25.8839C4.35054 26.1183 4.66848 26.25 5 26.25H9.48C9.66748 27.3167 10.1772 28.3003 10.9407 29.0685C11.7041 29.8367 12.6845 30.3525 13.75 30.5467V35C13.75 35.3315 13.8817 35.6495 14.1161 35.8839C14.3505 36.1183 14.6685 36.25 15 36.25C15.3315 36.25 15.6495 36.1183 15.8839 35.8839C16.1183 35.6495 16.25 35.3315 16.25 35V30.7933C17.0811 30.8522 17.9144 30.8911 18.75 30.91V33.3333C18.75 33.6649 18.8817 33.9828 19.1161 34.2172C19.3505 34.4516 19.6685 34.5833 20 34.5833C20.3315 34.5833 20.6495 34.4516 20.8839 34.2172C21.1183 33.9828 21.25 33.6649 21.25 33.3333V30.91C22.0841 30.8907 22.9177 30.8518 23.75 30.7933V35C23.75 35.3315 23.8817 35.6495 24.1161 35.8839C24.3505 36.1183 24.6685 36.25 25 36.25C25.3315 36.25 25.6495 36.1183 25.8839 35.8839C26.1183 35.6495 26.25 35.3315 26.25 35V30.5467C27.3155 30.3525 28.2959 29.8367 29.0593 29.0685C29.8228 28.3003 30.3325 27.3167 30.52 26.25H35C35.3315 26.25 35.6495 26.1183 35.8839 25.8839C36.1183 25.6495 36.25 25.3315 36.25 25C36.25 24.6685 36.1183 24.3505 35.8839 24.1161C35.6495 23.8817 35.3315 23.75 35 23.75H30.7717C30.8317 22.9167 30.8722 22.0833 30.8933 21.25H33.3333C33.6649 21.25 33.9828 21.1183 34.2172 20.8839C34.4516 20.6495 34.5833 20.3315 34.5833 20C34.5833 19.6685 34.4516 19.3505 34.2172 19.1161C33.9828 18.8817 33.6649 18.75 33.3333 18.75H30.8933C30.8711 17.9167 30.8306 17.0833 30.7717 16.25H35C35.3315 16.25 35.6495 16.1183 35.8839 15.8839C36.1183 15.6495 36.25 15.3315 36.25 15C36.25 14.6685 36.1183 14.3505 35.8839 14.1161C35.6495 13.8817 35.3315 13.75 35 13.75H30.52C30.3325 12.6833 29.8228 11.6997 29.0593 10.9315C28.2959 10.1633 27.3155 9.64745 26.25 9.45333V5ZM14.3883 11.8833C18.1181 11.4704 21.8819 11.4704 25.6117 11.8833C26.9 12.0283 27.9283 13.0467 28.0767 14.315C28.5179 18.0922 28.5179 21.9078 28.0767 25.685C27.9976 26.308 27.7113 26.8863 27.264 27.327C26.8166 27.7677 26.2341 28.0452 25.61 28.115C21.8808 28.5278 18.1175 28.5278 14.3883 28.115C13.7645 28.0449 13.1824 27.7672 12.7354 27.3265C12.2883 26.8858 12.0024 26.3077 11.9233 25.685C11.4821 21.9078 11.4821 18.0922 11.9233 14.315C12.0024 13.692 12.2887 13.1137 12.736 12.673C13.1834 12.2323 13.7659 11.9548 14.39 11.885" fill="currentColor"></path></svg>