<svg width="48" height="48" viewBox="0 0 49 48" fill="none" xmlns="http://www.w3.org/2000/svg" class="h-8 w-8 text-white"><path d="M34.88 21.75C35.355 21.75 35.8004 21.8379 36.216 22.0137C36.6316 22.1895 36.9938 22.4297 37.3025 22.7344C37.6113 23.0391 37.8547 23.3965 38.0329 23.8066C38.211 24.2168 38.3 24.6562 38.3 25.125V31.875C38.3 33.2695 38.0329 34.582 37.4985 35.8125C36.9641 37.043 36.2279 38.1152 35.2897 39.0293C34.3516 39.9434 33.265 40.6641 32.03 41.1914C30.795 41.7188 29.465 41.9883 28.04 42C26.33 42 24.7388 41.6777 23.2663 41.0332C21.7938 40.3887 20.4519 39.4746 19.2407 38.291L10.8332 29.9941C10.5007 29.666 10.2454 29.2852 10.0672 28.8516C9.88911 28.418 9.80005 27.9727 9.80005 27.5156C9.80005 27.0234 9.89505 26.5664 10.085 26.1445C10.275 25.7227 10.5304 25.3477 10.851 25.0195C11.1716 24.6914 11.5457 24.4453 11.9732 24.2812C12.4007 24.1172 12.8638 24.0234 13.3625 24C14.3363 24 15.1735 24.3457 15.8741 25.0371L17.78 26.9004V20.9941C17.0794 20.666 16.45 20.2559 15.8919 19.7637C15.3338 19.2715 14.8588 18.7148 14.4669 18.0938C14.075 17.4727 13.7663 16.8047 13.5407 16.0898C13.315 15.375 13.2082 14.6367 13.22 13.875C13.22 12.7852 13.4279 11.7656 13.8435 10.8164C14.2591 9.86719 14.8291 9.0293 15.5535 8.30273C16.2779 7.57617 17.121 7.01367 18.0829 6.61523C19.0447 6.2168 20.0838 6.01172 21.2 6C22.3044 6 23.3375 6.20508 24.2994 6.61523C25.2613 7.02539 26.1104 7.58789 26.8466 8.30273C27.5829 9.01758 28.1529 9.84961 28.5566 10.7988C28.9604 11.748 29.1682 12.7734 29.18 13.875C29.18 14.9648 28.9604 16.0078 28.521 17.0039C28.0816 18 27.4582 18.873 26.6507 19.623C27.0663 19.7285 27.4404 19.9043 27.7729 20.1504C28.1054 20.3965 28.3963 20.7012 28.6457 21.0645C29.18 20.7715 29.7382 20.625 30.32 20.625C30.9138 20.625 31.466 20.7598 31.9766 21.0293C32.4872 21.2988 32.8969 21.6855 33.2057 22.1895C33.74 21.8965 34.2982 21.75 34.88 21.75ZM15.5 13.875C15.5 14.7539 15.7019 15.5918 16.1057 16.3887C16.5094 17.1855 17.0675 17.8477 17.78 18.375V13.875C17.78 13.4062 17.8691 12.9668 18.0472 12.5566C18.2254 12.1465 18.4688 11.7891 18.7775 11.4844C19.0863 11.1797 19.4485 10.9395 19.8641 10.7637C20.2797 10.5879 20.725 10.5 21.2 10.5C21.675 10.5 22.1204 10.5879 22.536 10.7637C22.9516 10.9395 23.3138 11.1797 23.6225 11.4844C23.9313 11.7891 24.1747 12.1465 24.3529 12.5566C24.531 12.9668 24.62 13.4062 24.62 13.875V18.375C25.3325 17.8477 25.8907 17.1855 26.2944 16.3887C26.6982 15.5918 26.9 14.7539 26.9 13.875C26.9 13.1016 26.7516 12.375 26.4547 11.6953C26.1579 11.0156 25.7482 10.4238 25.2257 9.91992C24.7032 9.41602 24.0975 9.01172 23.4088 8.70703C22.72 8.40234 21.9838 8.25 21.2 8.25C20.4163 8.25 19.68 8.39648 18.9913 8.68945C18.3025 8.98242 17.6969 9.38672 17.1744 9.90234C16.6519 10.418 16.2422 11.0156 15.9454 11.6953C15.6485 12.375 15.5 13.1016 15.5 13.875ZM36.02 25.125C36.02 24.8203 35.9072 24.5566 35.6816 24.334C35.456 24.1113 35.1888 24 34.88 24C34.4763 24 34.1972 24.1113 34.0429 24.334C33.8885 24.5566 33.7935 24.832 33.7579 25.1602C33.7222 25.4883 33.7163 25.8516 33.74 26.25C33.7638 26.6484 33.7638 27.0059 33.74 27.3223C33.7163 27.6387 33.6213 27.9199 33.455 28.166C33.2888 28.4121 33.0038 28.5234 32.6 28.5C32.1607 28.5 31.8638 28.3652 31.7094 28.0957C31.555 27.8262 31.46 27.4746 31.4244 27.041C31.3888 26.6074 31.4007 26.1562 31.46 25.6875C31.5194 25.2188 31.5313 24.7676 31.4957 24.334C31.46 23.9004 31.371 23.5547 31.2285 23.2969C31.086 23.0391 30.7832 22.8984 30.32 22.875C29.9163 22.875 29.6372 22.9863 29.4829 23.209C29.3285 23.4316 29.2335 23.707 29.1979 24.0352C29.1622 24.3633 29.1563 24.7266 29.18 25.125C29.2038 25.5234 29.2038 25.8809 29.18 26.1973C29.1563 26.5137 29.0613 26.7949 28.895 27.041C28.7288 27.2871 28.4438 27.3984 28.04 27.375C27.6007 27.375 27.3038 27.2402 27.1494 26.9707C26.995 26.7012 26.9 26.3496 26.8644 25.916C26.8288 25.4824 26.8407 25.0312 26.9 24.5625C26.9594 24.0938 26.9713 23.6426 26.9357 23.209C26.9 22.7754 26.811 22.4297 26.6685 22.1719C26.526 21.9141 26.2232 21.7734 25.76 21.75C25.3563 21.75 25.0772 21.8613 24.9229 22.084C24.7685 22.3066 24.6735 22.582 24.6379 22.9102C24.6022 23.2383 24.5963 23.6016 24.62 24C24.6438 24.3984 24.6438 24.7559 24.62 25.0723C24.5963 25.3887 24.5013 25.6699 24.335 25.916C24.1688 26.1621 23.8838 26.2734 23.48 26.25C23.1713 26.25 22.9041 26.1387 22.6785 25.916C22.4529 25.6934 22.34 25.4297 22.34 25.125V13.875C22.34 13.5703 22.2272 13.3066 22.0016 13.084C21.776 12.8613 21.5088 12.75 21.2 12.75C20.8913 12.75 20.6241 12.8613 20.3985 13.084C20.1729 13.3066 20.06 13.5703 20.06 13.875V27.709C20.06 27.9785 20.0125 28.2246 19.9175 28.4473C19.8225 28.6699 19.686 28.875 19.5079 29.0625C19.3297 29.25 19.1219 29.3848 18.8844 29.4668C18.6469 29.5488 18.3975 29.6016 18.1363 29.625C17.875 29.625 17.6257 29.5781 17.3882 29.4844C17.1507 29.3906 16.931 29.25 16.7291 29.0625L14.2532 26.6191C14.0038 26.373 13.7069 26.25 13.3625 26.25C13.0182 26.25 12.7213 26.373 12.4719 26.6191C12.2225 26.8652 12.0919 27.1641 12.08 27.5156C12.08 27.8555 12.2047 28.1484 12.4541 28.3945L20.8616 36.709C21.8591 37.6934 22.9516 38.4434 24.1391 38.959C25.3266 39.4746 26.6269 39.7383 28.04 39.75C29.1444 39.75 30.1775 39.5449 31.1394 39.1348C32.1013 38.7246 32.9444 38.1621 33.6688 37.4473C34.3932 36.7324 34.9632 35.9004 35.3788 34.9512C35.7944 34.002 36.0082 32.9766 36.02 31.875V25.125Z" fill="white"></path></svg>