<svg width="48" height="48" viewBox="0 0 49 48" fill="none" xmlns="http://www.w3.org/2000/svg" class="h-8 w-8 text-white"><path fill-rule="evenodd" clip-rule="evenodd" d="M26.2738 7.50251C23.5826 7.50251 21.0836 8.32606 18.9987 9.74015C18.3236 10.198 17.414 10.0088 16.9669 9.3175C16.5198 8.62625 16.7046 7.69473 17.3796 7.2369C19.9298 5.50725 22.9892 4.5 26.2738 4.5C35.18 4.5 42.3999 11.8935 42.3999 21.0138C42.3999 27.0494 41.2778 32.8202 39.2331 38.1166C38.9354 38.8876 38.0837 39.2656 37.3308 38.9607C36.5779 38.6559 36.2088 37.7837 36.5064 37.0127C38.4176 32.0622 39.4679 26.6656 39.4679 21.0138C39.4679 13.5517 33.5607 7.50251 26.2738 7.50251ZM14.8522 11.4831C15.5272 11.9409 15.712 12.8724 15.2649 13.5637C13.884 15.6988 13.0798 18.2578 13.0798 21.0138C13.0798 24.2429 12.1739 27.2599 10.6064 29.8071C10.1747 30.5086 9.26949 30.7189 8.5845 30.2768C7.89952 29.8348 7.69416 28.9078 8.12583 28.2063C9.40684 26.1247 10.1478 23.6603 10.1478 21.0138C10.1478 17.6502 11.1314 14.5172 12.8204 11.9057C13.2675 11.2145 14.1771 11.0253 14.8522 11.4831ZM26.2738 15.0088C23.0352 15.0088 20.4098 17.6973 20.4098 21.0138C20.4098 27.2185 18.1112 32.8769 14.3398 37.1385C13.7962 37.7529 12.8691 37.7996 12.2691 37.2429C11.6692 36.6861 11.6235 35.7367 12.1672 35.1223C15.4688 31.3915 17.4778 26.4448 17.4778 21.0138C17.4778 16.0391 21.4159 12.0063 26.2738 12.0063C31.1318 12.0063 35.0699 16.0391 35.0699 21.0138C35.0699 22.1092 35.0264 23.195 34.9397 24.2693C34.8731 25.0956 34.1649 25.7101 33.358 25.6419C32.5511 25.5736 31.951 24.8484 32.0177 24.0221C32.0976 23.0311 32.1379 22.0278 32.1379 21.0138C32.1379 17.6973 29.5125 15.0088 26.2738 15.0088ZM26.2745 19.5126C27.0841 19.5126 27.7405 20.1847 27.7405 21.0138C27.7405 28.8367 24.9562 35.9974 20.349 41.5078C19.8224 42.1376 18.8969 42.211 18.2819 41.6717C17.6669 41.1325 17.5952 40.1848 18.1218 39.555C22.2914 34.5681 24.8085 28.0939 24.8085 21.0138C24.8085 20.1847 25.4648 19.5126 26.2745 19.5126ZM32.6045 29.8874C33.3831 30.1148 33.8342 30.9456 33.6121 31.7429C32.4981 35.7414 30.7776 39.4771 28.5596 42.839C28.1063 43.5261 27.195 43.7067 26.5241 43.2425C25.8532 42.7784 25.6768 41.8452 26.1301 41.1582C28.1778 38.0544 29.7651 34.6073 30.7926 30.9192C31.0147 30.1219 31.8259 29.6599 32.6045 29.8874Z" fill="white"></path></svg>