<svg width="40" height="40" viewBox="0 0 40 40" fill="none" xmlns="http://www.w3.org/2000/svg" class="h-8 w-8 text-white"><path d="M36.5834 8.75H3.00008C2.31494 8.75 1.65786 9.01339 1.17339 9.48223C0.68892 9.95107 0.416748 10.587 0.416748 11.25V31.25C0.416748 31.5815 0.552834 31.8995 0.795068 32.1339C1.0373 32.3683 1.36584 32.5 1.70841 32.5C2.05099 32.5 2.37953 32.3683 2.62176 32.1339C2.864 31.8995 3.00008 31.5815 3.00008 31.25V28.75H5.58341V31.25C5.58341 31.5815 5.7195 31.8995 5.96174 32.1339C6.20397 32.3683 6.53251 32.5 6.87508 32.5C7.21765 32.5 7.54619 32.3683 7.78843 32.1339C8.03066 31.8995 8.16675 31.5815 8.16675 31.25V28.75H10.7501V31.25C10.7501 31.5815 10.8862 31.8995 11.1284 32.1339C11.3706 32.3683 11.6992 32.5 12.0417 32.5C12.3843 32.5 12.7129 32.3683 12.9551 32.1339C13.1973 31.8995 13.3334 31.5815 13.3334 31.25V28.75H15.9167V31.25C15.9167 31.5815 16.0528 31.8995 16.2951 32.1339C16.5373 32.3683 16.8658 32.5 17.2084 32.5C17.551 32.5 17.8795 32.3683 18.1218 32.1339C18.364 31.8995 18.5001 31.5815 18.5001 31.25V28.75H21.0834V31.25C21.0834 31.5815 21.2195 31.8995 21.4617 32.1339C21.704 32.3683 22.0325 32.5 22.3751 32.5C22.7177 32.5 23.0462 32.3683 23.2884 32.1339C23.5307 31.8995 23.6667 31.5815 23.6667 31.25V28.75H26.2501V31.25C26.2501 31.5815 26.3862 31.8995 26.6284 32.1339C26.8706 32.3683 27.1992 32.5 27.5417 32.5C27.8843 32.5 28.2129 32.3683 28.4551 32.1339C28.6973 31.8995 28.8334 31.5815 28.8334 31.25V28.75H31.4167V31.25C31.4167 31.5815 31.5528 31.8995 31.7951 32.1339C32.0373 32.3683 32.3658 32.5 32.7084 32.5C33.051 32.5 33.3795 32.3683 33.6218 32.1339C33.864 31.8995 34.0001 31.5815 34.0001 31.25V28.75H36.5834V31.25C36.5834 31.5815 36.7195 31.8995 36.9617 32.1339C37.204 32.3683 37.5325 32.5 37.8751 32.5C38.2177 32.5 38.5462 32.3683 38.7884 32.1339C39.0307 31.8995 39.1667 31.5815 39.1667 31.25V11.25C39.1667 10.587 38.8946 9.95107 38.4101 9.48223C37.9256 9.01339 37.2686 8.75 36.5834 8.75ZM3.00008 11.25H36.5834V26.25H3.00008V11.25ZM17.2084 23.75C17.551 23.75 17.8795 23.6183 18.1218 23.3839C18.364 23.1495 18.5001 22.8315 18.5001 22.5V15C18.5001 14.6685 18.364 14.3505 18.1218 14.1161C17.8795 13.8817 17.551 13.75 17.2084 13.75H6.87508C6.53251 13.75 6.20397 13.8817 5.96174 14.1161C5.7195 14.3505 5.58341 14.6685 5.58341 15V22.5C5.58341 22.8315 5.7195 23.1495 5.96174 23.3839C6.20397 23.6183 6.53251 23.75 6.87508 23.75H17.2084ZM8.16675 16.25H15.9167V21.25H8.16675V16.25ZM22.3751 23.75H32.7084C33.051 23.75 33.3795 23.6183 33.6218 23.3839C33.864 23.1495 34.0001 22.8315 34.0001 22.5V15C34.0001 14.6685 33.864 14.3505 33.6218 14.1161C33.3795 13.8817 33.051 13.75 32.7084 13.75H22.3751C22.0325 13.75 21.704 13.8817 21.4617 14.1161C21.2195 14.3505 21.0834 14.6685 21.0834 15V22.5C21.0834 22.8315 21.2195 23.1495 21.4617 23.3839C21.704 23.6183 22.0325 23.75 22.3751 23.75ZM23.6667 16.25H31.4167V21.25H23.6667V16.25Z" fill="currentColor"></path></svg>