<svg version="1.2" xmlns="http://www.w3.org/2000/svg" viewBox="0 0 2360 960" width="2360" height="960">
	<style>
		.s0 { fill: #edffad } 
	</style>
	<path class="s0" d="m548.71 0c45.72 0 68.52 22.82 68.52 68.57l0.71 274.29c0 22.82 11.4 34.33 34.31 34.33 68.53 0 102.74 34.24 102.74 102.81l-0.7 377.19c0 68.57-34.22 102.81-102.74 102.81h-548.31c-68.52 0-102.74-34.24-102.74-102.81v-137.14c0-45.75 22.81-68.57 68.53-68.57 45.72 0 68.52 22.82 68.52 68.57v34.24c0 45.74 22.81 68.57 68.53 68.57h205.58c45.71 0 68.52-22.83 68.52-68.57v-686.43c0-45.24 22.81-67.86 68.53-67.86z"/>
	<path class="s0" d="m905.71 0.71l549.35-0.71c68.08 0.4 102.22 34.92 102.22 103.44v753.73c0 68.12-34.24 102.33-102.82 102.83h-548.65c-68.17 0-102.41-34.31-102.82-102.83v-753.73c0-68.52 34.24-102.83 102.82-102.83zm35.05 205.56v548.17c0.4 45.71 23.13 68.52 67.87 68.52h342.91c45.75 0 68.58-22.81 68.58-68.52v-343.31c0-22.81-11.42-34.21-34.34-34.21-68.58-0.41-102.82-34.52-102.82-102.13v-102.73c-0.51-22.81-11.92-34.51-34.34-34.92l-239.38 0.71c-45.75 0-68.58 22.81-68.58 68.52z"/>
	<path class="s0" d="m2222.31 68.57c0-45.75 22.83-68.57 68.59-68.57 45.77 0 68.6 22.82 68.6 68.57v342.86c0 68.57-34.25 102.91-102.84 102.91h-120.01q-34.25 0-34.25 34.23v342.86c0 45.75-23.74 68.57-71.32 68.57h-100.11c-45.76 0-69.5-22.82-71.32-68.57v-342.86q0-34.23-34.25-34.23h-117.28c-68.6 0-102.84-34.34-102.84-102.91v-342.86c0-45.75 22.83-68.57 68.59-68.57 45.76 0 68.59 22.62 68.59 67.87v240.65c0 45.75 22.83 68.57 68.6 68.57h342.96c45.76 0 68.59-22.82 68.59-68.57v-239.95z"/>
</svg>