<svg width="62" height="48" viewBox="0 0 62 48" fill="none" xmlns="http://www.w3.org/2000/svg">
<path d="M42.0171 28.1254C42.8271 28.1254 43.4837 28.782 43.4837 29.592V32.5251C43.4837 33.3351 42.8271 33.9917 42.0171 33.9917C41.2072 33.9917 40.5505 33.3351 40.5505 32.5251V29.592C40.5505 28.782 41.2072 28.1254 42.0171 28.1254Z" fill="#EDFFAD"/>
<path fill-rule="evenodd" clip-rule="evenodd" d="M57.7142 39.6827C58.0075 39.5738 58.328 39.5133 58.6607 39.5133H58.6667C60.1968 39.5133 61.4366 40.7531 61.4366 42.2832C61.4366 43.8133 60.1968 45.0531 58.6667 45.0531C58.0287 45.0531 57.442 44.8354 56.9733 44.4725C56.2264 45.8151 55.0652 46.9037 53.6712 47.2787C50.1363 48.2252 29.5163 47.9682 29.5163 47.9682C27.5326 47.9682 25.7031 47.2968 24.2396 46.1659C22.274 46.1236 20.2873 45.3978 18.5698 43.8738C17.4609 42.9449 16.6614 41.7458 15.8742 40.5652L15.7757 40.4175C15.3402 39.7704 14.8413 39.1626 14.2516 38.6485C12.5734 37.1849 10.499 36.4924 8.42456 36.5015C8.40915 36.4553 8.39471 36.4081 8.38013 36.3604C8.36902 36.3241 8.3577 36.2871 8.34594 36.2505C8.27942 36.0237 8.28244 35.8242 8.34292 35.5913C8.43061 35.2587 8.56366 34.9442 8.72998 34.6448C10.0544 34.5299 11.4182 34.669 12.7487 35.0984C14.4905 35.6367 16.1053 36.6406 17.3935 37.9802C17.6686 38.2762 17.9399 38.6011 18.2095 38.9237C18.4851 39.2536 18.7587 39.5812 19.0324 39.8732C19.6402 40.4991 20.3539 41.0495 21.1189 41.5091C20.9133 40.7561 20.8014 39.9639 20.8014 39.1444V34.6569C12.1863 33.6197 5.50952 26.2838 5.50952 17.3905C5.50952 7.78655 13.2961 0 22.9 0C31.881 0 39.2744 6.80982 40.1937 15.5489C45.6073 17.4682 49.3902 20.7995 52.0329 24.5545C50.9208 25.0186 50.1393 26.1163 50.1393 27.3966C50.1393 29.0967 51.5175 30.4749 53.2176 30.4749C53.8828 30.4749 54.4987 30.2639 55.002 29.9052C56.5204 33.4243 57.3075 36.9189 57.7142 39.6827ZM21.0706 5.96011C16.3745 6.44999 12.6279 10.0122 11.7358 14.4966H15.047C16.1719 14.4966 17.0851 15.4098 17.0851 16.5347V25.9239C18.7785 26.8492 20.744 27.33 22.8124 27.2091L23.4111 26.0146C25.5188 21.8205 28.7906 18.3249 32.8336 15.945C32.4828 9.90027 27.1608 5.3251 21.0706 5.96314V5.96011ZM46.7526 31.3972C46.7526 36.1568 42.8941 40.0153 38.1345 40.0153C33.3748 40.0153 29.5164 36.1568 29.5164 31.3972C29.5164 26.6375 33.3748 22.7791 38.1345 22.7791C42.8941 22.7791 46.7526 26.6375 46.7526 31.3972Z" fill="#EDFFAD"/>
<path d="M54.1989 28.4125C54.2364 28.4125 54.2732 28.4101 54.3093 28.4054C54.7239 28.3512 55.0441 27.996 55.0441 27.5658V26.1627C55.0441 25.6951 54.6657 25.316 54.1989 25.316C53.7322 25.316 53.3538 25.6951 53.3538 26.1627V27.5658C53.3538 28.0334 53.7322 28.4125 54.1989 28.4125Z" fill="#EDFFAD"/>
<path d="M43.4868 15.6234C45.523 16.5373 48.5189 18.2752 50.7229 21.2399C50.7229 21.2399 54.4967 17.6868 53.8315 12.3133C53.2448 7.5507 49.8671 3.6287 45.2134 2.46449C42.9888 1.90532 38.4462 2.15528 35.6729 4.00064C35.7163 4.03602 37.8009 5.74728 39.4143 8.79956H41.4487C42.5735 8.79956 43.4868 9.71278 43.4868 10.8377V15.6234Z" fill="#EDFFAD"/>
<path d="M7.83971 34.754L7.84108 34.7538V34.7507L7.83971 34.754Z" fill="#EDFFAD"/>
<path d="M7.83971 34.754C7.33218 34.8417 6.83671 34.9686 6.35332 35.1317C6.35332 35.1378 6.3503 35.1438 6.34728 35.1469C6.34123 35.165 6.33439 35.1832 6.32759 35.2014C6.3208 35.2195 6.314 35.2376 6.30797 35.2557C6.28075 35.3434 6.25656 35.4311 6.23842 35.5188C6.19911 35.6972 6.19004 35.794 6.18701 35.9966C6.18701 36.0873 6.18701 36.178 6.19608 36.2687C6.19608 36.2712 6.19712 36.2815 6.19834 36.2936C6.20005 36.3106 6.20213 36.3312 6.20213 36.3383C6.20818 36.3836 6.21725 36.432 6.22632 36.4774C6.24446 36.5651 6.26563 36.6558 6.29285 36.7405C6.29285 36.7435 6.29284 36.7465 6.29587 36.7495C6.74341 36.6437 7.19699 36.5681 7.6536 36.5288C7.62639 36.4532 7.6022 36.3746 7.58405 36.299C7.5145 35.9936 7.54172 35.6881 7.62034 35.3857C7.67449 35.1692 7.75257 34.9616 7.83971 34.754Z" fill="#EDFFAD"/>
<path d="M5.50285 35.4555C5.41585 35.9564 5.44326 36.4633 5.58809 36.9551C5.28267 37.0549 4.97726 37.1698 4.68092 37.3029C4.5146 36.8826 4.47529 36.4048 4.5267 35.9421C4.84403 35.7638 5.1674 35.6006 5.50285 35.4555Z" fill="#EDFFAD"/>
<path d="M0.00302219 41.2279C0.00302219 41.2279 0.00302315 41.3307 0.0937405 41.3731C0.151195 41.4003 0.220746 41.3731 0.250984 41.3217C1.18235 39.6827 2.50681 38.4429 4.01574 37.6295C3.85547 37.2485 3.77383 36.8372 3.75871 36.4199C2.08347 37.566 0.740856 39.211 0 41.2309L0.00302219 41.2279Z" fill="#EDFFAD"/>
</svg>
