<svg width="20" height="20" viewBox="0 0 20 20" fill="none" xmlns="http://www.w3.org/2000/svg">
<path d="M10.0013 1.66699C14.6037 1.66699 18.3346 5.39793 18.3346 10.0003C18.3346 14.6027 14.6037 18.3336 10.0013 18.3336C5.39891 18.3336 1.66797 14.6027 1.66797 10.0003C1.66797 5.39793 5.39891 1.66699 10.0013 1.66699ZM7.18309 10.8336H3.38625C3.79633 14.1222 6.6016 16.667 10.0013 16.667C13.401 16.667 16.2063 14.1222 16.6163 10.8336H13.8498L11.668 15.1973L8.33461 8.53059L7.18309 10.8336ZM10.0013 3.33363C6.6016 3.33363 3.79633 5.8784 3.38625 9.16699H6.15281L8.33461 4.80336L11.668 11.47L12.8195 9.16699H16.6163C16.2063 5.8784 13.401 3.33363 10.0013 3.33363Z" fill="#EDFFAD"/>
</svg>
