<svg width="20" height="20" viewBox="0 0 20 20" fill="none" xmlns="http://www.w3.org/2000/svg">
<path d="M3.67578 13.4929L4.65911 14.8387L8.33411 12.1529V17.4995C8.33412 17.6492 8.37443 17.7961 8.45082 17.9248C8.52721 18.0535 8.63686 18.1593 8.76824 18.231C8.89962 18.3027 9.04789 18.3377 9.19746 18.3323C9.34704 18.3269 9.4924 18.2813 9.61828 18.2004L15.4516 14.4504C15.5655 14.3772 15.6599 14.2773 15.7265 14.1595C15.7931 14.0417 15.8301 13.9094 15.8341 13.774C15.8381 13.6387 15.8091 13.5045 15.7496 13.3829C15.6901 13.2613 15.6018 13.156 15.4924 13.0762L11.2816 9.99953L15.4924 6.92286C15.6016 6.84283 15.6897 6.73746 15.7491 6.61582C15.8085 6.49419 15.8374 6.35993 15.8334 6.22463C15.8294 6.08932 15.7926 5.95702 15.726 5.83912C15.6595 5.72123 15.5653 5.62127 15.4516 5.54786L9.61828 1.79786C9.49233 1.71671 9.34683 1.67101 9.1971 1.66559C9.04737 1.66016 8.89894 1.6952 8.76745 1.76703C8.50078 1.91369 8.33411 2.19453 8.33411 2.49953V7.84619L4.65911 5.15953L3.67578 6.50619L8.33411 9.91036V10.0895L3.67578 13.4929ZM10.0008 4.02619L13.5274 6.29369L10.0008 8.87119V4.02619ZM10.0008 11.1279L13.5274 13.7054L10.0008 15.9729V11.1279Z" fill="#EDFFAD"/>
</svg>
