<svg width="20" height="20" viewBox="0 0 20 20" fill="none" xmlns="http://www.w3.org/2000/svg">
<path fill-rule="evenodd" clip-rule="evenodd" d="M2.5 9.375C2.5 8.87772 2.69754 8.40081 3.04917 8.04917C3.40081 7.69754 3.87772 7.5 4.375 7.5H15.625C16.1223 7.5 16.5992 7.69754 16.9508 8.04917C17.3025 8.40081 17.5 8.87772 17.5 9.375V10.625C17.5 11.1223 17.3025 11.5992 16.9508 11.9508C16.5992 12.3025 16.1223 12.5 15.625 12.5H4.375C3.87772 12.5 3.40081 12.3025 3.04917 11.9508C2.69754 11.5992 2.5 11.1223 2.5 10.625V9.375ZM4.375 8.75C4.20924 8.75 4.05027 8.81585 3.93306 8.93306C3.81585 9.05027 3.75 9.20924 3.75 9.375V10.625C3.75 10.7908 3.81585 10.9497 3.93306 11.0669C4.05027 11.1842 4.20924 11.25 4.375 11.25H15.625C15.7908 11.25 15.9497 11.1842 16.0669 11.0669C16.1842 10.9497 16.25 10.7908 16.25 10.625V9.375C16.25 9.20924 16.1842 9.05027 16.0669 8.93306C15.9497 8.81585 15.7908 8.75 15.625 8.75H4.375Z" fill="#EDFFAD"/>
<path fill-rule="evenodd" clip-rule="evenodd" d="M5 3.125C5 2.95924 4.93415 2.80027 4.81694 2.68306C4.69973 2.56585 4.54076 2.5 4.375 2.5C4.20924 2.5 4.05027 2.56585 3.93306 2.68306C3.81585 2.80027 3.75 2.95924 3.75 3.125V5C1.675 5 0 6.675 0 8.75V11.25C0 13.325 1.675 15 3.75 15V16.875C3.75 17.0408 3.81585 17.1997 3.93306 17.3169C4.05027 17.4342 4.20924 17.5 4.375 17.5C4.54076 17.5 4.69973 17.4342 4.81694 17.3169C4.93415 17.1997 5 17.0408 5 16.875V15H7.5V16.875C7.5 17.0408 7.56585 17.1997 7.68306 17.3169C7.80027 17.4342 7.95924 17.5 8.125 17.5C8.29076 17.5 8.44973 17.4342 8.56694 17.3169C8.68415 17.1997 8.75 17.0408 8.75 16.875V15H11.25V16.875C11.25 17.0408 11.3158 17.1997 11.4331 17.3169C11.5503 17.4342 11.7092 17.5 11.875 17.5C12.0408 17.5 12.1997 17.4342 12.3169 17.3169C12.4342 17.1997 12.5 17.0408 12.5 16.875V15H15V16.875C15 17.0408 15.0658 17.1997 15.1831 17.3169C15.3003 17.4342 15.4592 17.5 15.625 17.5C15.7908 17.5 15.9497 17.4342 16.0669 17.3169C16.1842 17.1997 16.25 17.0408 16.25 16.875V15C18.325 15 20 13.325 20 11.25V8.75C20 6.675 18.325 5 16.25 5V3.125C16.25 2.95924 16.1842 2.80027 16.0669 2.68306C15.9497 2.56585 15.7908 2.5 15.625 2.5C15.4592 2.5 15.3003 2.56585 15.1831 2.68306C15.0658 2.80027 15 2.95924 15 3.125V5H12.5V3.125C12.5 2.95924 12.4342 2.80027 12.3169 2.68306C12.1997 2.56585 12.0408 2.5 11.875 2.5C11.7092 2.5 11.5503 2.56585 11.4331 2.68306C11.3158 2.80027 11.25 2.95924 11.25 3.125V5H8.75V3.125C8.75 2.95924 8.68415 2.80027 8.56694 2.68306C8.44973 2.56585 8.29076 2.5 8.125 2.5C7.95924 2.5 7.80027 2.56585 7.68306 2.68306C7.56585 2.80027 7.5 2.95924 7.5 3.125V5H5V3.125ZM3.75 6.25C2.375 6.25 1.25 7.36875 1.25 8.75V11.25C1.25 12.625 2.36875 13.75 3.75 13.75H16.25C17.625 13.75 18.75 12.6313 18.75 11.25V8.75C18.75 7.375 17.6313 6.25 16.25 6.25H3.75Z" fill="#EDFFAD"/>
</svg>
