<svg width="20" height="20" viewBox="0 0 20 20" fill="none" xmlns="http://www.w3.org/2000/svg">
<path d="M11.668 7.50033H8.33464C8.11362 7.50033 7.90166 7.58812 7.74538 7.7444C7.5891 7.90068 7.5013 8.11265 7.5013 8.33366V11.667C7.5013 11.888 7.5891 12.1 7.74538 12.2562C7.90166 12.4125 8.11362 12.5003 8.33464 12.5003H11.668C11.889 12.5003 12.1009 12.4125 12.2572 12.2562C12.4135 12.1 12.5013 11.888 12.5013 11.667V8.33366C12.5013 8.11265 12.4135 7.90068 12.2572 7.7444C12.1009 7.58812 11.889 7.50033 11.668 7.50033ZM10.8346 10.8337H9.16797V9.16699H10.8346V10.8337ZM17.5013 10.8337C17.7223 10.8337 17.9343 10.7459 18.0906 10.5896C18.2468 10.4333 18.3346 10.2213 18.3346 10.0003C18.3346 9.77931 18.2468 9.56735 18.0906 9.41107C17.9343 9.25479 17.7223 9.16699 17.5013 9.16699H15.8346V7.50033H17.5013C17.7223 7.50033 17.9343 7.41253 18.0906 7.25625C18.2468 7.09997 18.3346 6.88801 18.3346 6.66699C18.3346 6.44598 18.2468 6.23402 18.0906 6.07774C17.9343 5.92146 17.7223 5.83366 17.5013 5.83366H15.6846C15.5602 5.48416 15.3595 5.16674 15.0972 4.90441C14.8349 4.64208 14.5175 4.44142 14.168 4.31699V2.50033C14.168 2.27931 14.0802 2.06735 13.9239 1.91107C13.7676 1.75479 13.5556 1.66699 13.3346 1.66699C13.1136 1.66699 12.9017 1.75479 12.7454 1.91107C12.5891 2.06735 12.5013 2.27931 12.5013 2.50033V4.16699H10.8346V2.50033C10.8346 2.27931 10.7468 2.06735 10.5906 1.91107C10.4343 1.75479 10.2223 1.66699 10.0013 1.66699C9.78029 1.66699 9.56833 1.75479 9.41205 1.91107C9.25577 2.06735 9.16797 2.27931 9.16797 2.50033V4.16699H7.5013V2.50033C7.5013 2.27931 7.4135 2.06735 7.25722 1.91107C7.10094 1.75479 6.88898 1.66699 6.66797 1.66699C6.44695 1.66699 6.23499 1.75479 6.07871 1.91107C5.92243 2.06735 5.83464 2.27931 5.83464 2.50033V4.31699C5.48514 4.44142 5.16771 4.64208 4.90539 4.90441C4.64306 5.16674 4.4424 5.48416 4.31797 5.83366H2.5013C2.28029 5.83366 2.06833 5.92146 1.91205 6.07774C1.75577 6.23402 1.66797 6.44598 1.66797 6.66699C1.66797 6.88801 1.75577 7.09997 1.91205 7.25625C2.06833 7.41253 2.28029 7.50033 2.5013 7.50033H4.16797V9.16699H2.5013C2.28029 9.16699 2.06833 9.25479 1.91205 9.41107C1.75577 9.56735 1.66797 9.77931 1.66797 10.0003C1.66797 10.2213 1.75577 10.4333 1.91205 10.5896C2.06833 10.7459 2.28029 10.8337 2.5013 10.8337H4.16797V12.5003H2.5013C2.28029 12.5003 2.06833 12.5881 1.91205 12.7444C1.75577 12.9007 1.66797 13.1126 1.66797 13.3337C1.66797 13.5547 1.75577 13.7666 1.91205 13.9229C2.06833 14.0792 2.28029 14.167 2.5013 14.167H4.31797C4.4424 14.5165 4.64306 14.8339 4.90539 15.0962C5.16771 15.3586 5.48514 15.5592 5.83464 15.6837V17.5003C5.83464 17.7213 5.92243 17.9333 6.07871 18.0896C6.23499 18.2459 6.44695 18.3337 6.66797 18.3337C6.88898 18.3337 7.10094 18.2459 7.25722 18.0896C7.4135 17.9333 7.5013 17.7213 7.5013 17.5003V15.8337H9.16797V17.5003C9.16797 17.7213 9.25577 17.9333 9.41205 18.0896C9.56833 18.2459 9.78029 18.3337 10.0013 18.3337C10.2223 18.3337 10.4343 18.2459 10.5906 18.0896C10.7468 17.9333 10.8346 17.7213 10.8346 17.5003V15.8337H12.5013V17.5003C12.5013 17.7213 12.5891 17.9333 12.7454 18.0896C12.9017 18.2459 13.1136 18.3337 13.3346 18.3337C13.5556 18.3337 13.7676 18.2459 13.9239 18.0896C14.0802 17.9333 14.168 17.7213 14.168 17.5003V15.6837C14.5175 15.5592 14.8349 15.3586 15.0972 15.0962C15.3595 14.8339 15.5602 14.5165 15.6846 14.167H17.5013C17.7223 14.167 17.9343 14.0792 18.0906 13.9229C18.2468 13.7666 18.3346 13.5547 18.3346 13.3337C18.3346 13.1126 18.2468 12.9007 18.0906 12.7444C17.9343 12.5881 17.7223 12.5003 17.5013 12.5003H15.8346V10.8337H17.5013ZM14.168 13.3337C14.168 13.5547 14.0802 13.7666 13.9239 13.9229C13.7676 14.0792 13.5556 14.167 13.3346 14.167H6.66797C6.44695 14.167 6.23499 14.0792 6.07871 13.9229C5.92243 13.7666 5.83464 13.5547 5.83464 13.3337V6.66699C5.83464 6.44598 5.92243 6.23402 6.07871 6.07774C6.23499 5.92146 6.44695 5.83366 6.66797 5.83366H13.3346C13.5556 5.83366 13.7676 5.92146 13.9239 6.07774C14.0802 6.23402 14.168 6.44598 14.168 6.66699V13.3337Z" fill="#EDFFAD"/>
</svg>
