<svg width="20" height="20" viewBox="0 0 20 20" fill="none" xmlns="http://www.w3.org/2000/svg">
<path d="M10.0013 17.4686C8.32686 16.9714 6.93602 15.9572 5.8288 14.4261C4.72158 12.895 4.16797 11.1697 4.16797 9.25029V4.74362L10.0013 2.56445L15.8346 4.74362V9.25029C15.8346 11.1692 15.281 12.8942 14.1738 14.4253C13.0666 15.9564 11.6757 16.9703 10.0013 17.4686ZM10.0013 16.5845C11.3485 16.1678 12.4735 15.345 13.3763 14.1161C14.2791 12.8872 14.8069 11.5153 14.9596 10.0003H10.0013V3.45362L5.0013 5.31279V9.60945C5.0013 9.71723 5.01519 9.84751 5.04297 10.0003H10.0013V16.5845Z" fill="#EDFFAD"/>
</svg>
