<svg width="20" height="20" viewBox="0 0 20 20" fill="none" xmlns="http://www.w3.org/2000/svg">
<path d="M4.16667 16.6663C3.70833 16.6663 3.31611 16.5033 2.99 16.1772C2.66389 15.8511 2.50056 15.4586 2.5 14.9997C2.49945 14.5408 2.66278 14.1486 2.99 13.823C3.31722 13.4975 3.70945 13.3341 4.16667 13.333H15.8333C16.2917 13.333 16.6842 13.4963 17.0108 13.823C17.3375 14.1497 17.5006 14.5419 17.5 14.9997C17.4994 15.4575 17.3364 15.85 17.0108 16.1772C16.6853 16.5044 16.2928 16.6675 15.8333 16.6663H4.16667ZM4.16667 6.66634C3.70833 6.66634 3.31611 6.50329 2.99 6.17717C2.66389 5.85106 2.50056 5.45856 2.5 4.99967C2.49945 4.54079 2.66278 4.14856 2.99 3.82301C3.31722 3.49745 3.70945 3.33412 4.16667 3.33301H15.8333C16.2917 3.33301 16.6842 3.49634 17.0108 3.82301C17.3375 4.14967 17.5006 4.5419 17.5 4.99967C17.4994 5.45745 17.3364 5.84995 17.0108 6.17717C16.6853 6.5044 16.2928 6.66745 15.8333 6.66634H4.16667ZM4.16667 11.6663C3.70833 11.6663 3.31611 11.5033 2.99 11.1772C2.66389 10.8511 2.50056 10.4586 2.5 9.99967C2.49945 9.54079 2.66278 9.14856 2.99 8.82301C3.31722 8.49745 3.70945 8.33412 4.16667 8.33301H15.8333C16.2917 8.33301 16.6842 8.49634 17.0108 8.82301C17.3375 9.14967 17.5006 9.5419 17.5 9.99967C17.4994 10.4575 17.3364 10.85 17.0108 11.1772C16.6853 11.5044 16.2928 11.6675 15.8333 11.6663H4.16667ZM5 5.83301C5.23611 5.83301 5.43417 5.75301 5.59417 5.59301C5.75417 5.43301 5.83389 5.23523 5.83333 4.99967C5.83278 4.76412 5.75278 4.56634 5.59333 4.40634C5.43389 4.24634 5.23611 4.16634 5 4.16634C4.76389 4.16634 4.56611 4.24634 4.40667 4.40634C4.24722 4.56634 4.16722 4.76412 4.16667 4.99967C4.16611 5.23523 4.24611 5.43329 4.40667 5.59384C4.56722 5.7544 4.765 5.83412 5 5.83301ZM5 10.833C5.23611 10.833 5.43417 10.753 5.59417 10.593C5.75417 10.433 5.83389 10.2352 5.83333 9.99967C5.83278 9.76412 5.75278 9.56634 5.59333 9.40634C5.43389 9.24634 5.23611 9.16634 5 9.16634C4.76389 9.16634 4.56611 9.24634 4.40667 9.40634C4.24722 9.56634 4.16722 9.76412 4.16667 9.99967C4.16611 10.2352 4.24611 10.4333 4.40667 10.5938C4.56722 10.7544 4.765 10.8341 5 10.833ZM5 15.833C5.23611 15.833 5.43417 15.753 5.59417 15.593C5.75417 15.433 5.83389 15.2352 5.83333 14.9997C5.83278 14.7641 5.75278 14.5663 5.59333 14.4063C5.43389 14.2463 5.23611 14.1663 5 14.1663C4.76389 14.1663 4.56611 14.2463 4.40667 14.4063C4.24722 14.5663 4.16722 14.7641 4.16667 14.9997C4.16611 15.2352 4.24611 15.4333 4.40667 15.5938C4.56722 15.7544 4.765 15.8341 5 15.833Z" fill="#EDFFAD"/>
</svg>
