<svg width="20" height="20" viewBox="0 0 20 20" fill="none" xmlns="http://www.w3.org/2000/svg">
<path d="M15.0008 5C15.4429 5 15.8668 5.17559 16.1793 5.48816C16.4919 5.80072 16.6675 6.22464 16.6675 6.66667V7.5C17.1095 7.5 17.5335 7.6756 17.846 7.98816C18.1586 8.30072 18.3342 8.72464 18.3342 9.16667V10.8333C18.3342 11.2754 18.1586 11.6993 17.846 12.0118C17.5335 12.3244 17.1095 12.5 16.6675 12.5V13.3333C16.6675 13.7754 16.4919 14.1993 16.1793 14.5118C15.8668 14.8244 15.4429 15 15.0008 15H10.75L12.97 11.2992C13.7917 9.93083 13.1342 8.2575 11.7992 7.695L12.145 7.12C12.5433 6.45417 12.5975 5.67833 12.3575 5H15.0008Z" fill="#EDFFAD"/>
<path d="M9.28279 5.40543C9.39156 5.22196 9.56654 5.08718 9.77169 5.02885C9.97685 4.97051 10.1966 4.99306 10.3856 5.09184C10.5746 5.19063 10.7186 5.35814 10.7878 5.55987C10.8571 5.76161 10.8463 5.98221 10.7578 6.17626L10.712 6.26293L8.97113 9.1671H10.817C11.4386 9.1671 11.8345 9.81126 11.5836 10.3563L11.5386 10.4421L9.04696 14.5963C8.93861 14.7807 8.76346 14.9165 8.55779 14.9754C8.35212 15.0342 8.13167 15.0118 7.94211 14.9126C7.75255 14.8134 7.60839 14.6451 7.53948 14.4426C7.47058 14.2401 7.48221 14.0188 7.57196 13.8246L7.61779 13.7379L9.35863 10.8338H7.51363C7.37286 10.8338 7.23434 10.7985 7.11075 10.7311C6.98715 10.6638 6.88242 10.5665 6.80615 10.4482C6.72987 10.3299 6.68449 10.1943 6.67415 10.0539C6.66381 9.91354 6.68884 9.7728 6.74696 9.6446L6.79196 9.55876L9.28279 5.40543Z" fill="#EDFFAD"/>
<path d="M7.58547 5L5.36547 8.70083C4.5713 10.0233 5.15964 11.6308 6.40464 12.245L6.5363 12.305L6.1913 12.88C6.01605 13.1718 5.90223 13.4963 5.85681 13.8336C5.81138 14.1709 5.83531 14.5139 5.92714 14.8417L5.97714 15H3.33464C2.91416 15.0001 2.50916 14.8413 2.20085 14.5554C1.89253 14.2695 1.70367 13.8776 1.67214 13.4583L1.66797 13.3333V6.66667C1.66805 6.24633 1.82695 5.84155 2.11283 5.5334C2.39872 5.22526 2.79048 5.03653 3.20964 5.005L3.33464 5H7.58547Z" fill="#EDFFAD"/>
</svg>
