<svg width="20" height="20" viewBox="0 0 20 20" fill="none" xmlns="http://www.w3.org/2000/svg">
<path d="M1.71755 8.38359C2.14255 8.80859 2.81755 8.85026 3.27588 8.46693C7.16755 5.26693 12.8175 5.26693 16.7175 8.45859C17.1842 8.84193 17.8675 8.80859 18.2926 8.38359C18.7842 7.89193 18.7509 7.07526 18.2092 6.63359C13.4509 2.74193 6.56755 2.74193 1.80088 6.63359C1.25922 7.06693 1.21755 7.88359 1.71755 8.38359ZM8.18422 14.8503L9.40922 16.0753C9.73422 16.4003 10.2592 16.4003 10.5842 16.0753L11.8092 14.8503C12.2009 14.4586 12.1176 13.7836 11.6176 13.5253C11.1135 13.2664 10.555 13.1314 9.98838 13.1314C9.42175 13.1314 8.86328 13.2664 8.35922 13.5253C7.88422 13.7836 7.79255 14.4586 8.18422 14.8503ZM5.07588 11.7419C5.48422 12.1503 6.12588 12.1919 6.60088 11.8503C7.5949 11.1464 8.78288 10.7683 10.0009 10.7683C11.2189 10.7683 12.4069 11.1464 13.4009 11.8503C13.8759 12.1836 14.5175 12.1503 14.9259 11.7419L14.9342 11.7336C15.4342 11.2336 15.4009 10.3836 14.8259 9.97526C11.9592 7.90026 8.05088 7.90026 5.17588 9.97526C4.60088 10.3919 4.56755 11.2336 5.07588 11.7419Z" fill="#EDFFAD"/>
</svg>
