<svg width="40" height="40" viewBox="0 0 40 40" fill="none" xmlns="http://www.w3.org/2000/svg" class="h-8 w-8 text-white"><path d="M11.5261 24.9653H13.6824V15.0347H11.5261V24.9653ZM18.7136 24.9653H20.8699V15.0347H18.7136V24.9653ZM25.9011 24.9653H28.0574V15.0347H25.9011V24.9653ZM7.573 29.9306H32.0105V10.0694H7.573V29.9306ZM10.0886 36.25V32.6389H7.573C6.998 32.6389 6.49487 32.3681 6.06362 31.8264C5.63237 31.2847 5.41675 30.6528 5.41675 29.9306V10.0694C5.41675 9.34722 5.63237 8.71528 6.06362 8.17361C6.49487 7.63195 6.998 7.36111 7.573 7.36111H10.0886V3.75H12.2449V7.36111H18.7136V3.75H20.8699V7.36111H27.3386V3.75H29.4949V7.36111H32.0105C32.5855 7.36111 33.0886 7.63195 33.5199 8.17361C33.9511 8.71528 34.1667 9.34722 34.1667 10.0694V29.9306C34.1667 30.6528 33.9511 31.2847 33.5199 31.8264C33.0886 32.3681 32.5855 32.6389 32.0105 32.6389H29.4949V36.25H27.3386V32.6389H20.8699V36.25H18.7136V32.6389H12.2449V36.25H10.0886Z" fill="currentColor"></path></svg>