<svg width="18" height="19" viewBox="0 0 18 19" fill="none" xmlns="http://www.w3.org/2000/svg" class="h-5 w-5"><path d="M10.195 13.8571L15 9.02708L10.195 4.19708C10.1516 4.14009 10.0965 4.09309 10.0333 4.05927C9.9702 4.02544 9.90053 4.00558 9.82904 4.00101C9.75756 3.99645 9.68593 4.0073 9.61901 4.03283C9.55208 4.05836 9.49142 4.09797 9.44114 4.14898C9.39085 4.19999 9.35211 4.26121 9.32754 4.32849C9.30297 4.39577 9.29315 4.46755 9.29873 4.53896C9.30431 4.61037 9.32517 4.67975 9.35989 4.7424C9.39462 4.80505 9.4424 4.8595 9.5 4.90208L13.095 8.52708L3.53 8.52708C3.39739 8.52708 3.27021 8.57976 3.17645 8.67353C3.08268 8.76729 3.03 8.89447 3.03 9.02708C3.03 9.15969 3.08268 9.28686 3.17645 9.38063C3.27021 9.4744 3.39739 9.52708 3.53 9.52708L13.095 9.52708L9.5 13.1521C9.40651 13.2462 9.35425 13.3737 9.35472 13.5063C9.35519 13.639 9.40835 13.7661 9.5025 13.8596C9.59665 13.9531 9.72409 14.0053 9.85677 14.0049C9.98945 14.0044 10.1165 13.9512 10.21 13.8571L10.195 13.8571Z" fill="white"></path></svg>