<svg width="52" height="41" viewBox="0 0 52 41" fill="none" xmlns="http://www.w3.org/2000/svg">
<path d="M35.5443 23.7926C36.2295 23.7926 36.7849 24.348 36.7849 25.0332V27.5146C36.7849 28.1998 36.2295 28.7552 35.5443 28.7552C34.8591 28.7552 34.3036 28.1998 34.3036 27.5146V25.0332C34.3036 24.348 34.8591 23.7926 35.5443 23.7926Z" fill="white"/>
<path fill-rule="evenodd" clip-rule="evenodd" d="M48.8231 33.5694C49.0713 33.4774 49.3424 33.4262 49.6238 33.4262H49.6289C50.9233 33.4262 51.9721 34.475 51.9721 35.7694C51.9721 37.0638 50.9233 38.1126 49.6289 38.1126C49.0892 38.1126 48.5929 37.9284 48.1964 37.6214C47.5646 38.7572 46.5823 39.6781 45.403 39.9953C42.4126 40.796 24.9692 40.5785 24.9692 40.5785C23.2911 40.5785 21.7435 40.0106 20.5054 39.0539C18.8427 39.0181 17.162 38.4042 15.709 37.1149C14.771 36.3291 14.0946 35.3147 13.4288 34.3161L13.3454 34.191C12.977 33.6436 12.5549 33.1295 12.0561 32.6946C10.6364 31.4565 8.88157 30.8707 7.12674 30.8784C7.1137 30.8392 7.10148 30.7993 7.08915 30.759C7.07975 30.7283 7.07017 30.697 7.06023 30.666C7.00395 30.4742 7.00651 30.3054 7.05767 30.1084C7.13185 29.827 7.24441 29.561 7.3851 29.3077C8.50553 29.2105 9.65922 29.3282 10.7848 29.6914C12.2582 30.1468 13.6242 30.996 14.7139 32.1292C14.9467 32.3797 15.1763 32.6545 15.4043 32.9274C15.6374 33.2065 15.8689 33.4836 16.1004 33.7306C16.6146 34.2601 17.2183 34.7257 17.8655 35.1145C17.6915 34.4775 17.5969 33.8073 17.5969 33.1141V29.3179C10.309 28.4405 4.66076 22.2347 4.66076 14.7114C4.66076 6.58701 11.2478 0 19.3722 0C26.9696 0 33.2241 5.76075 34.0017 13.1535C38.5814 14.7772 41.7815 17.5953 44.0171 20.7718C43.0763 21.1644 42.4152 22.093 42.4152 23.1761C42.4152 24.6143 43.5811 25.7802 45.0193 25.7802C45.582 25.7802 46.103 25.6017 46.5288 25.2983C47.8133 28.2752 48.4792 31.2315 48.8231 33.5694ZM17.8246 5.04194C13.852 5.45635 10.6825 8.46976 9.9279 12.2634H12.729C13.6806 12.2634 14.4531 13.0359 14.4531 13.9875V21.9303C15.8856 22.713 17.5484 23.1198 19.2981 23.0174L19.8046 22.007C21.5875 18.459 24.3554 15.5019 27.7755 13.4887C27.4788 8.3751 22.9766 4.50475 17.8246 5.0445V5.04194ZM39.5502 26.5604C39.5502 30.5868 36.2862 33.8508 32.2598 33.8508C28.2333 33.8508 24.9693 30.5868 24.9693 26.5604C24.9693 22.5339 28.2333 19.2699 32.2598 19.2699C36.2862 19.2699 39.5502 22.5339 39.5502 26.5604Z" fill="white"/>
<path d="M45.8494 24.0355C45.8811 24.0355 45.9123 24.0334 45.9428 24.0294C46.2936 23.9836 46.5644 23.6831 46.5644 23.3192V22.1323C46.5644 21.7367 46.2443 21.416 45.8494 21.416C45.4546 21.416 45.1345 21.7367 45.1345 22.1323V23.3192C45.1345 23.7148 45.4546 24.0355 45.8494 24.0355Z" fill="white"/>
<path d="M36.7875 13.2165C38.5101 13.9897 41.0445 15.4598 42.9089 17.9678C42.9089 17.9678 46.1014 14.9621 45.5386 10.4164C45.0423 6.38749 42.185 3.06969 38.2481 2.08483C36.3662 1.6118 32.5235 1.82325 30.1774 3.38433C30.2141 3.41426 31.9776 4.8619 33.3424 7.44396H35.0634C36.015 7.44396 36.7875 8.2165 36.7875 9.1681V13.2165Z" fill="white"/>
<path d="M6.63198 29.4L6.63314 29.3998V29.3973L6.63198 29.4Z" fill="white"/>
<path d="M6.63198 29.4C6.20263 29.4742 5.7835 29.5816 5.37458 29.7196C5.37458 29.7247 5.37202 29.7298 5.36946 29.7324C5.36435 29.7477 5.35856 29.7632 5.35281 29.7785C5.34706 29.7938 5.34131 29.8092 5.33621 29.8245C5.31318 29.8987 5.29272 29.9728 5.27737 30.047C5.24412 30.198 5.23644 30.2798 5.23389 30.4512C5.23389 30.5279 5.23389 30.6047 5.24156 30.6814C5.24156 30.6836 5.24244 30.6923 5.24346 30.7025C5.24492 30.7169 5.24667 30.7343 5.24667 30.7403C5.25179 30.7786 5.25946 30.8196 5.26714 30.8579C5.28249 30.9321 5.30039 31.0089 5.32342 31.0805C5.32342 31.0831 5.32341 31.0856 5.32597 31.0882C5.70457 30.9986 6.08828 30.9347 6.47454 30.9014C6.45152 30.8375 6.43106 30.771 6.41571 30.707C6.35687 30.4486 6.37989 30.1903 6.4464 29.9345C6.49221 29.7513 6.55827 29.5756 6.63198 29.4Z" fill="white"/>
<path d="M4.65513 29.9935C4.58152 30.4173 4.60471 30.846 4.72723 31.2621C4.46886 31.3465 4.2105 31.4437 3.95981 31.5563C3.81912 31.2007 3.78586 30.7965 3.82935 30.4052C4.0978 30.2543 4.37135 30.1163 4.65513 29.9935Z" fill="white"/>
<path d="M0.00255662 34.8766C0.00255662 34.8766 0.00255742 34.9636 0.0792995 34.9994C0.127903 35.0225 0.186739 34.9994 0.212319 34.9559C1.0002 33.5695 2.12063 32.5207 3.39711 31.8326C3.26153 31.5102 3.19246 31.1623 3.17967 30.8093C1.7625 31.7788 0.626725 33.1704 0 34.8792L0.00255662 34.8766Z" fill="white"/>
</svg>
