<svg width="26" height="28" viewBox="0 0 26 28" fill="none" xmlns="http://www.w3.org/2000/svg" class="h-8 w-8 text-white"><path fill-rule="evenodd" clip-rule="evenodd" d="M0.0100176 13.743C0.102877 14.8257 0.295398 15.8989 0.585454 16.9509C1.08415 19.4102 1.3335 21.0141 1.81303 22.7963C2.10075 23.919 2.48438 25.1131 3.04061 26.6279C3.08881 26.7546 3.18663 26.8598 3.31461 26.9227C3.44258 26.9854 3.59129 27.001 3.73114 26.9665C3.87039 26.9255 3.98666 26.8351 4.05486 26.7151C4.12306 26.5951 4.13768 26.455 4.09558 26.325C3.63523 24.8279 3.34751 23.6518 3.11734 22.529C2.79126 20.7469 2.63781 19.1607 2.33093 16.7013C2.33093 16.1133 1.98566 15.0796 1.9473 14.1351C1.88583 13.7783 1.96045 13.4126 2.1583 13.1014C2.27338 12.9589 2.52274 12.9232 2.77208 12.8519C3.14982 12.7469 3.53417 12.6636 3.92295 12.6025L9.77315 11.5332C11.6913 11.159 13.6094 10.7134 15.4315 10.3391C16.6657 10.0795 17.9143 9.8832 19.1718 9.75099C19.5745 9.75099 20.3995 9.51933 21.0899 9.43022C21.416 9.43022 21.7036 9.34111 21.8763 9.43022C22.263 9.76094 22.5251 10.1982 22.6244 10.6777C22.7884 11.1681 22.9166 11.6682 23.008 12.1747C22.5861 12.1747 22.1833 12.2639 21.7613 12.3529C20.9172 12.5133 20.0925 12.7093 19.2678 12.8875L16.6207 13.5114C16.1233 13.6211 15.6408 13.7824 15.1822 13.9925C14.8214 14.1854 14.5025 14.4392 14.2423 14.7409C13.9668 15.1082 13.7725 15.5225 13.6703 15.96C13.5684 16.3974 13.5605 16.8493 13.6477 17.2896C13.7911 18.1593 14.2596 18.9544 14.9712 19.535C15.6486 20.028 16.4895 20.2863 17.3496 20.2656C18.3056 20.1853 19.2542 20.0424 20.1885 19.838L23.4491 19.232C23.8345 19.2038 24.2145 19.1321 24.5808 19.0181C24.7468 18.9542 24.897 18.8597 25.0223 18.7402C25.1475 18.6207 25.2454 18.4788 25.3098 18.3231C25.4284 17.9476 25.4675 17.5541 25.4249 17.1647C25.3059 16.4708 25.1329 15.7858 24.907 15.1152L24.485 13.3332C24.372 12.1891 24.1539 11.0564 23.8327 9.94703C23.6409 9.36965 23.2828 8.85199 22.797 8.45003C22.3768 8.19378 21.8796 8.0689 21.3777 8.09361C20.5869 8.12607 19.7989 8.20344 19.0185 8.32528H17.9059C17.8984 8.21888 17.8557 8.11722 17.7835 8.03427C17.7114 7.95132 17.6135 7.89111 17.5031 7.86193C15.585 7.25599 13.6669 6.72136 11.7488 6.27582C10.4444 5.99067 9.12106 5.74117 7.7975 5.54513C7.27007 5.47034 6.73859 5.42273 6.20548 5.40256C6.27711 5.37375 6.34046 5.32971 6.39043 5.274C6.44041 5.21827 6.47561 5.15243 6.4932 5.08179L7.73996 2.56895C7.73996 2.56895 7.93177 2.33729 8.0085 2.19471C8.09768 2.24433 8.19481 2.28042 8.29622 2.30164C8.64853 2.35741 8.99498 2.44087 9.33204 2.55113C9.85037 2.695 10.3568 2.87368 10.8474 3.08578L13.5134 4.15506C14.8369 4.67189 16.1796 5.15307 17.484 5.72335C18.4045 6.11543 19.4021 6.54315 20.2268 7.00649C20.2945 7.04968 20.3707 7.07984 20.451 7.09517C20.5315 7.11048 20.6143 7.11068 20.6948 7.09572C20.7752 7.08077 20.8517 7.05098 20.9195 7.00811C20.9876 6.96522 21.0454 6.91014 21.0899 6.84611C21.1769 6.71561 21.2056 6.55869 21.1698 6.40885C21.134 6.259 21.0364 6.12812 20.8981 6.04414C19.4692 5.07522 17.9695 4.19986 16.4097 3.42439C14.8752 2.65806 13.2833 1.99868 11.6913 1.30363C11.1854 1.11133 10.6665 0.950581 10.1376 0.822465C9.56984 0.708075 8.99191 0.642468 8.4113 0.626427C8.09869 0.599134 7.78403 0.599134 7.47142 0.626427C7.28831 0.644249 7.11156 0.698995 6.95355 0.786822C6.75691 0.882642 6.59635 1.03184 6.4932 1.21452C6.37811 1.46403 6.2822 1.87393 6.22466 2.03432L5.39989 4.77882C5.3566 4.90177 5.36643 5.03555 5.42725 5.15192C5.48809 5.26828 5.59519 5.35816 5.72597 5.40256H4.57509C4.31322 5.3868 4.05055 5.3868 3.78868 5.40256C3.62887 5.42026 3.47331 5.46242 3.32833 5.52731C3.01338 5.70024 2.77532 5.97202 2.65699 6.29364C2.52456 6.70381 2.4157 7.12022 2.33093 7.54114L1.18005 11.3728C0.958578 11.4923 0.758047 11.6425 0.585454 11.8182C0.154786 12.3764 -0.0490974 13.0585 0.0100176 13.743ZM23.8904 17.539L23.1807 17.6638L19.9967 18.0202C19.1354 18.1789 18.2641 18.286 17.388 18.3409C17.0095 18.354 16.6376 18.2472 16.3331 18.038C16.0135 17.7521 15.8044 17.3763 15.7385 16.9687C15.6745 16.7841 15.6517 16.5893 15.6714 16.3963C15.6912 16.2032 15.7532 16.016 15.8535 15.846C15.9734 15.6739 16.1384 15.5328 16.3331 15.436C16.6123 15.2875 16.9081 15.168 17.2153 15.0796L19.7089 14.2421C20.5144 13.9925 21.3009 13.7074 22.1066 13.4934C22.4784 13.3855 22.8561 13.2963 23.2381 13.2262V13.4044V13.6004L23.4876 15.3826C23.6199 15.9179 23.7224 16.4592 23.7944 17.0043C23.8575 17.1765 23.8898 17.357 23.8904 17.539ZM3.96131 8.1649C4.19147 7.5946 4.30656 7.32728 4.74772 7.30946C5.20121 7.28259 5.65608 7.28259 6.10957 7.30946C6.5891 7.30946 7.04945 7.30946 7.50978 7.43421C9.42785 7.63025 11.346 7.89757 13.2641 8.21836C13.9353 8.32529 14.5876 8.46785 15.1822 8.5926H14.9712C13.0531 8.89557 11.135 9.28765 9.21687 9.60844L3.30915 10.6777L2.65699 10.8738L3.96131 8.1649Z" fill="white"></path><path fill-rule="evenodd" clip-rule="evenodd" d="M25.6808 22.5326C25.7387 21.7023 25.6745 20.8685 25.4897 20.0546C25.466 19.9012 25.3783 19.7629 25.246 19.6695C25.1136 19.576 24.9469 19.5351 24.7823 19.5554C24.7017 19.5641 24.6238 19.5878 24.5531 19.625C24.4825 19.6621 24.4204 19.7121 24.3706 19.7718C24.3209 19.8314 24.2842 19.8998 24.263 19.9728C24.2418 20.0459 24.2365 20.1221 24.2472 20.1972C24.3622 20.8943 24.3622 21.6037 24.2472 22.3007C24.1676 22.6551 23.9741 22.9784 23.6928 23.2277C23.1625 23.5599 22.5634 23.7846 21.9341 23.8874C20.8421 24.1132 19.7381 24.2858 18.627 24.4044C16.7154 24.7253 14.9374 24.957 13.1215 25.2601C10.3497 25.7413 7.61604 26.3118 4.86329 26.918C4.79176 26.9308 4.72364 26.9568 4.66281 26.9942C4.60201 27.0316 4.54968 27.0799 4.50885 27.1362C4.42641 27.2498 4.39574 27.3894 4.42364 27.5241C4.45152 27.6589 4.53566 27.7777 4.65754 27.8546C4.77944 27.9316 4.92909 27.9601 5.07358 27.9341C7.84542 27.5955 10.6363 27.435 13.4274 27.1141C15.3391 26.9002 17.1359 26.5971 18.9901 26.294C20.3317 26.068 21.6542 25.7522 22.9472 25.3492C23.6105 25.1321 24.2164 24.7857 24.725 24.3331C25.2443 23.8453 25.5798 23.2135 25.6808 22.5326Z" fill="white"></path></svg>