<svg width="1786" height="482" viewBox="0 0 1786 482" fill="none" xmlns="http://www.w3.org/2000/svg">
<mask id="path-1-inside-1_4758_136" fill="white">
<path d="M979.876 63.9465C999.784 63.9465 1009.72 73.8782 1009.72 93.7855L1010.02 213.142C1010.02 223.073 1014.99 228.083 1024.96 228.083C1054.8 228.083 1069.7 242.981 1069.7 272.82L1069.39 436.956C1069.39 466.795 1054.5 481.693 1024.66 481.693H785.901C756.062 481.693 741.164 466.795 741.164 436.956V377.278C741.164 357.371 751.096 347.439 771.003 347.439C790.911 347.439 800.842 357.371 800.842 377.278V392.176C800.842 412.083 810.774 422.015 830.681 422.015H920.198C940.106 422.015 950.037 412.083 950.037 392.176V93.4779C950.037 73.7903 959.969 63.9465 979.876 63.9465Z"/>
<path d="M1144 64.2542L1383.02 63.9465C1412.64 64.1223 1427.5 79.1517 1427.5 108.991V437.22C1427.5 466.883 1412.6 481.78 1382.76 482H1144.05C1114.39 482 1099.49 467.059 1099.31 437.22V108.991C1099.31 79.1517 1114.21 64.2102 1144.05 64.2102L1144 64.2542ZM1159.25 153.771V392.483C1159.43 412.391 1169.32 422.322 1188.79 422.322H1337.98C1357.89 422.322 1367.82 412.391 1367.82 392.483V242.981C1367.82 233.049 1362.85 228.083 1352.88 228.083C1323.04 227.907 1308.14 213.054 1308.14 183.61V138.874C1307.92 128.942 1302.96 123.844 1293.2 123.668L1189.05 123.976C1169.14 123.976 1159.21 133.908 1159.21 153.815L1159.25 153.771Z"/>
<path d="M1725.83 93.7855C1725.83 73.8782 1735.76 63.9465 1755.66 63.9465C1775.57 63.9465 1785.5 73.8782 1785.5 93.7855V242.981C1785.5 272.82 1770.61 287.761 1740.77 287.761H1688.56C1678.63 287.761 1673.66 292.727 1673.66 302.659V451.854C1673.66 471.761 1663.34 481.693 1642.64 481.693H1599.09C1579.18 481.693 1568.85 471.761 1568.06 451.854V302.659C1568.06 292.727 1563.1 287.761 1553.16 287.761H1502.14C1472.3 287.761 1457.41 272.82 1457.41 242.981V93.7855C1457.41 73.8782 1467.34 63.9465 1487.25 63.9465C1507.15 63.9465 1517.08 73.7903 1517.08 93.4779V198.2C1517.08 218.107 1527.02 228.039 1546.92 228.039H1696.12C1716.03 228.039 1725.96 218.107 1725.96 198.2V93.7855H1725.83Z"/>
<path d="M421.653 282.245C429.781 282.245 436.37 288.835 436.37 296.963V326.398C436.37 334.526 429.781 341.116 421.653 341.116C413.524 341.116 406.935 334.526 406.935 326.398V296.963C406.935 288.835 413.524 282.245 421.653 282.245Z"/>
<path fill-rule="evenodd" clip-rule="evenodd" d="M579.177 398.226C582.12 397.133 585.337 396.526 588.675 396.526H588.735C604.09 396.526 616.532 408.968 616.532 424.323C616.532 439.678 604.09 452.12 588.735 452.12C582.332 452.12 576.445 449.935 571.742 446.293C564.246 459.767 552.594 470.691 538.604 474.454C503.13 483.952 296.203 481.373 296.203 481.373C276.297 481.373 257.938 474.636 243.25 463.287C223.526 462.862 203.589 455.579 186.352 440.285C175.225 430.963 167.201 418.93 159.302 407.083L158.313 405.6C153.943 399.106 148.936 393.006 143.019 387.848C126.177 373.16 105.36 366.211 84.5427 366.302C84.388 365.838 84.243 365.364 84.0968 364.886C83.9852 364.522 83.8717 364.151 83.7537 363.784C83.0861 361.508 83.1164 359.505 83.7233 357.168C84.6033 353.83 85.9385 350.674 87.6076 347.67C100.899 346.517 114.585 347.913 127.937 352.222C145.416 357.623 161.621 367.698 174.548 381.141C177.308 384.112 180.032 387.372 182.737 390.609C185.503 393.92 188.249 397.207 190.995 400.138C197.095 406.419 204.256 411.942 211.934 416.554C209.87 408.998 208.747 401.048 208.747 392.824V347.791C122.293 337.383 55.2895 263.764 55.2895 174.518C55.2895 78.14 133.429 0 229.807 0C319.934 0 394.129 68.3383 403.354 156.037C457.681 175.298 495.643 208.728 522.163 246.411C511.004 251.068 503.161 262.084 503.161 274.932C503.161 291.993 516.991 305.823 534.052 305.823C540.728 305.823 546.908 303.706 551.96 300.107C567.197 335.421 575.096 370.491 579.177 398.226ZM211.449 59.8113C164.322 64.7273 126.724 100.475 117.772 145.477H151.001C162.289 145.477 171.454 154.641 171.454 165.93V260.153C188.447 269.439 208.172 274.264 228.928 273.05L234.937 261.064C256.088 218.974 288.922 183.895 329.494 160.013C325.974 99.3517 272.565 53.4387 211.449 59.8417V59.8113ZM469.174 315.079C469.174 362.843 430.454 401.564 382.689 401.564C334.925 401.564 296.204 362.843 296.204 315.079C296.204 267.314 334.925 228.594 382.689 228.594C430.454 228.594 469.174 267.314 469.174 315.079Z"/>
<path d="M543.9 285.127C544.276 285.127 544.645 285.102 545.008 285.055C549.169 284.511 552.382 280.947 552.382 276.63V262.55C552.382 257.857 548.585 254.053 543.9 254.053C539.216 254.053 535.419 257.857 535.419 262.55V276.63C535.419 281.323 539.216 285.127 543.9 285.127Z"/>
<path d="M436.401 156.784C456.835 165.956 486.9 183.396 509.017 213.148C509.017 213.148 546.889 177.492 540.213 123.568C534.326 75.7732 500.43 36.4149 453.728 24.7318C431.403 19.1204 385.817 21.6288 357.987 40.1475C358.422 40.5025 379.342 57.6755 395.532 88.3059H415.948C427.236 88.3059 436.401 97.4702 436.401 108.759V156.784Z"/>
<path d="M78.6735 348.765L78.6873 348.763V348.733L78.6735 348.765Z"/>
<path d="M78.6735 348.765C73.5803 349.645 68.6082 350.919 63.7572 352.556C63.7572 352.617 63.7269 352.677 63.6966 352.708C63.6359 352.89 63.5673 353.073 63.499 353.255C63.4309 353.437 63.3626 353.618 63.3021 353.8C63.0289 354.68 62.7862 355.56 62.6041 356.44C62.2096 358.231 62.1186 359.202 62.0882 361.235C62.0882 362.145 62.0882 363.056 62.1793 363.966C62.1793 363.991 62.1897 364.095 62.2019 364.215C62.2191 364.386 62.2399 364.593 62.2399 364.664C62.3006 365.119 62.3917 365.605 62.4827 366.06C62.6648 366.94 62.8772 367.85 63.1503 368.7C63.1503 368.73 63.1503 368.761 63.1806 368.791C67.6718 367.729 72.2237 366.97 76.8059 366.576C76.5328 365.817 76.29 365.028 76.1079 364.27C75.41 361.205 75.6831 358.14 76.4721 355.105C77.0154 352.931 77.799 350.848 78.6735 348.765Z"/>
<path d="M55.2226 355.805C54.3495 360.832 54.6245 365.919 56.0779 370.854C53.013 371.856 49.9481 373.009 46.9742 374.344C45.3052 370.126 44.9107 365.331 45.4266 360.689C48.6111 358.899 51.8562 357.261 55.2226 355.805Z"/>
<path d="M0.0303285 413.733C0.0303285 413.733 0.0303381 414.765 0.94071 415.189C1.51728 415.463 2.21524 415.189 2.51869 414.673C11.8651 398.226 25.1565 385.785 40.299 377.622C38.6907 373.798 37.8713 369.671 37.7196 365.483C20.9081 376.984 7.43468 393.492 0 413.763L0.0303285 413.733Z"/>
</mask>
<path d="M55.2282 355.773L54.9819 355.73L54.9762 355.763L55.2226 355.805L55.4689 355.848L55.4746 355.815L55.2282 355.773ZM357.957 40.1778L358.134 40.3544L358.164 40.324L357.987 40.1475L357.81 39.9709L357.78 40.0013L357.957 40.1778ZM1009.72 93.7855H1009.22V93.7868L1009.72 93.7855ZM1010.02 213.142H1010.52V213.14L1010.02 213.142ZM1069.7 272.82L1070.2 272.82V272.82H1069.7ZM1069.39 436.956L1068.89 436.955V436.956H1069.39ZM1144 64.2542L1143.65 63.9008L1142.8 64.7557L1144.01 64.7542L1144 64.2542ZM1383.02 63.9465L1383.03 63.4465L1383.02 63.4465L1383.02 63.9465ZM1382.76 482V482.5L1382.76 482.5L1382.76 482ZM1099.31 437.22H1098.81V437.223L1099.31 437.22ZM1144.05 64.2102L1144.4 64.5635L1145.25 63.7102H1144.05V64.2102ZM1159.25 153.771H1159.75V152.563L1158.9 153.418L1159.25 153.771ZM1159.25 392.483H1158.75L1158.75 392.488L1159.25 392.483ZM1352.88 228.083L1352.87 228.583H1352.88V228.083ZM1308.14 138.874H1308.64L1308.64 138.863L1308.14 138.874ZM1293.2 123.668L1293.21 123.168L1293.2 123.168L1293.2 123.668ZM1189.05 123.976V124.476L1189.05 124.476L1189.05 123.976ZM1159.21 153.815H1158.71V155.023L1159.56 154.168L1159.21 153.815ZM1725.83 93.7855H1725.33V94.2855H1725.83V93.7855ZM1568.06 451.854H1567.56V451.863L1567.56 451.873L1568.06 451.854ZM1725.96 93.7855H1726.46V93.2855H1725.96V93.7855ZM579.177 398.226L578.682 398.299L578.772 398.909L579.35 398.694L579.177 398.226ZM571.742 446.293L572.048 445.898L571.588 445.542L571.305 446.05L571.742 446.293ZM538.604 474.454L538.734 474.937L538.734 474.937L538.604 474.454ZM296.203 481.373L296.21 480.873H296.203V481.373ZM243.25 463.287L243.556 462.891L243.426 462.79L243.261 462.787L243.25 463.287ZM186.352 440.285L186.684 439.911L186.679 439.906L186.673 439.901L186.352 440.285ZM159.302 407.083L159.718 406.805L159.718 406.805L159.302 407.083ZM158.313 405.6L158.729 405.322L158.728 405.321L158.313 405.6ZM143.019 387.848L142.69 388.224L142.69 388.224L143.019 387.848ZM84.5427 366.302L84.0683 366.46L84.1828 366.804L84.5448 366.802L84.5427 366.302ZM84.0968 364.886L84.5749 364.74L84.5749 364.74L84.0968 364.886ZM83.7537 363.784L83.2737 363.924L83.2777 363.936L83.7537 363.784ZM83.7233 357.168L83.2398 357.041L83.2394 357.042L83.7233 357.168ZM87.6076 347.67L87.5643 347.172L87.2995 347.195L87.1705 347.427L87.6076 347.67ZM127.937 352.222L127.783 352.698L127.789 352.7L127.937 352.222ZM174.548 381.141L174.914 380.801L174.908 380.795L174.548 381.141ZM182.737 390.609L182.353 390.93L182.737 390.609ZM190.995 400.138L190.63 400.479L190.636 400.486L190.995 400.138ZM211.934 416.554L211.676 416.983L212.744 417.625L212.416 416.423L211.934 416.554ZM208.747 347.791H209.247V347.348L208.807 347.295L208.747 347.791ZM403.354 156.037L402.857 156.09L402.89 156.403L403.187 156.508L403.354 156.037ZM522.163 246.411L522.356 246.872L522.93 246.632L522.572 246.123L522.163 246.411ZM551.96 300.107L552.419 299.909L552.173 299.34L551.669 299.7L551.96 300.107ZM117.772 145.477L117.282 145.38L117.163 145.977H117.772V145.477ZM211.449 59.8113H211.949V59.2564L211.397 59.314L211.449 59.8113ZM171.454 260.153H170.954V260.45L171.214 260.592L171.454 260.153ZM228.928 273.05L228.957 273.549L229.246 273.532L229.375 273.274L228.928 273.05ZM234.937 261.064L234.49 260.839L234.49 260.84L234.937 261.064ZM329.494 160.013L329.747 160.444L330.011 160.289L329.993 159.984L329.494 160.013ZM211.449 59.8417H210.949V60.3968L211.501 60.3389L211.449 59.8417ZM545.008 285.055L544.943 284.559L545.008 285.055ZM509.017 213.148L508.616 213.446L508.951 213.897L509.36 213.512L509.017 213.148ZM436.401 156.784H435.901V157.108L436.196 157.241L436.401 156.784ZM540.213 123.568L539.716 123.629L539.716 123.629L540.213 123.568ZM453.728 24.7318L453.606 25.2168L453.606 25.2169L453.728 24.7318ZM357.987 40.1475L357.71 39.7312L357.146 40.1064L357.671 40.5348L357.987 40.1475ZM395.532 88.3059L395.09 88.5395L395.231 88.8059H395.532V88.3059ZM78.6873 348.763L78.7722 349.256L79.1873 349.184V348.763H78.6873ZM78.6873 348.733H79.1873L78.2262 348.539L78.6873 348.733ZM63.7572 352.556L63.5973 352.082L63.2572 352.197V352.556H63.7572ZM63.6966 352.708L63.3432 352.354L63.2596 352.438L63.2222 352.55L63.6966 352.708ZM63.499 353.255L63.0308 353.079L63.0308 353.079L63.499 353.255ZM63.3021 353.8L62.8276 353.642L62.8245 353.652L63.3021 353.8ZM62.6041 356.44L63.0925 356.548L63.0938 356.542L62.6041 356.44ZM62.0882 361.235L61.5882 361.227V361.235H62.0882ZM62.1793 363.966H62.6793V363.941L62.6768 363.916L62.1793 363.966ZM62.2019 364.215L61.7044 364.266V364.266L62.2019 364.215ZM62.2399 364.664H61.7399V364.697L61.7443 364.73L62.2399 364.664ZM62.4827 366.06L61.9924 366.158L61.9931 366.161L62.4827 366.06ZM63.1503 368.7H63.6503V368.622L63.6263 368.547L63.1503 368.7ZM63.1806 368.791L62.827 369.144L63.0243 369.342L63.2957 369.278L63.1806 368.791ZM76.8059 366.576L76.8487 367.074L77.4965 367.018L77.2763 366.406L76.8059 366.576ZM76.1079 364.27L75.6204 364.381L75.6217 364.386L76.1079 364.27ZM76.4721 355.105L76.956 355.231L76.9571 355.226L76.4721 355.105ZM56.0779 370.854L56.2332 371.33L56.6947 371.179L56.5575 370.713L56.0779 370.854ZM55.2226 355.805L55.7152 355.891L55.8736 354.979L55.0241 355.347L55.2226 355.805ZM46.9742 374.344L46.5093 374.528L46.7018 375.015L47.179 374.8L46.9742 374.344ZM45.4266 360.689L45.1817 360.253L44.958 360.378L44.9297 360.633L45.4266 360.689ZM0.94071 415.189L1.15477 414.738L1.15214 414.736L0.94071 415.189ZM0.0303285 413.733H0.530329L0.530317 412.525L-0.323419 413.379L0.0303285 413.733ZM2.51869 414.673L2.94971 414.927L2.9534 414.92L2.51869 414.673ZM40.299 377.622L40.5363 378.062L40.9359 377.846L40.7599 377.428L40.299 377.622ZM37.7196 365.483L38.2193 365.465L38.1864 364.558L37.4373 365.071L37.7196 365.483ZM0 413.763L-0.469423 413.591L0.353748 414.116L0 413.763ZM979.876 63.9465V64.4465C989.753 64.4465 997.063 66.91 1001.91 71.7543C1006.75 76.5987 1009.22 83.9087 1009.22 93.7855H1009.72H1010.22C1010.22 83.7551 1007.71 76.1456 1002.61 71.0472C997.516 65.9489 989.907 63.4465 979.876 63.4465V63.9465ZM1009.72 93.7855L1009.22 93.7868L1009.52 213.143L1010.02 213.142L1010.52 213.14L1010.22 93.7842L1009.72 93.7855ZM1010.02 213.142H1009.52C1009.52 218.184 1010.78 222.069 1013.4 224.69C1016.01 227.311 1019.9 228.583 1024.96 228.583V228.083V227.583C1020.05 227.583 1016.47 226.35 1014.11 223.984C1011.74 221.616 1010.52 218.03 1010.52 213.142H1010.02ZM1024.96 228.083V228.583C1039.81 228.583 1050.84 232.288 1058.17 239.615C1065.5 246.943 1069.2 257.977 1069.2 272.82H1069.7H1070.2C1070.2 257.823 1066.46 246.489 1058.88 238.908C1051.29 231.327 1039.96 227.583 1024.96 227.583V228.083ZM1069.7 272.82L1069.2 272.819L1068.89 436.955L1069.39 436.956L1069.89 436.957L1070.2 272.82L1069.7 272.82ZM1069.39 436.956H1068.89C1068.89 451.799 1065.19 462.833 1057.86 470.16C1050.53 477.488 1039.5 481.193 1024.66 481.193V481.693V482.193C1039.65 482.193 1050.99 478.449 1058.57 470.867C1066.15 463.286 1069.89 451.952 1069.89 436.956H1069.39ZM1024.66 481.693V481.193H785.901V481.693V482.193H1024.66V481.693ZM785.901 481.693V481.193C771.058 481.193 760.024 477.488 752.696 470.16C745.369 462.833 741.664 451.799 741.664 436.956H741.164H740.664C740.664 451.952 744.408 463.286 751.989 470.867C759.571 478.449 770.904 482.193 785.901 482.193V481.693ZM741.164 436.956H741.664V377.278H741.164H740.664V436.956H741.164ZM741.164 377.278H741.664C741.664 367.401 744.128 360.091 748.972 355.247C753.816 350.402 761.126 347.939 771.003 347.939V347.439V346.939C760.973 346.939 753.363 349.441 748.265 354.54C743.167 359.638 740.664 367.248 740.664 377.278H741.164ZM771.003 347.439V347.939C780.88 347.939 788.19 350.402 793.034 355.247C797.879 360.091 800.342 367.401 800.342 377.278H800.842H801.342C801.342 367.248 798.84 359.638 793.742 354.54C788.643 349.441 781.034 346.939 771.003 346.939V347.439ZM800.842 377.278H800.342V392.176H800.842H801.342V377.278H800.842ZM800.842 392.176H800.342C800.342 402.206 802.845 409.816 807.943 414.914C813.041 420.012 820.651 422.515 830.681 422.515V422.015V421.515C820.804 421.515 813.494 419.051 808.65 414.207C803.806 409.362 801.342 402.052 801.342 392.176H800.842ZM830.681 422.015V422.515H920.198V422.015V421.515H830.681V422.015ZM920.198 422.015V422.515C930.229 422.515 937.838 420.012 942.937 414.914C948.035 409.816 950.537 402.206 950.537 392.176H950.037H949.537C949.537 402.052 947.074 409.362 942.23 414.207C937.385 419.051 930.075 421.515 920.198 421.515V422.015ZM950.037 392.176H950.537V93.4779H950.037H949.537V392.176H950.037ZM950.037 93.4779H950.537C950.537 83.7123 953 76.4799 957.843 71.6847C962.688 66.8886 969.998 64.4465 979.876 64.4465V63.9465V63.4465C969.847 63.4465 962.238 65.9264 957.14 70.9741C952.04 76.0227 949.537 83.5559 949.537 93.4779H950.037ZM1144 64.2542L1144.01 64.7542L1383.02 64.4465L1383.02 63.9465L1383.02 63.4465L1144 63.7542L1144 64.2542ZM1383.02 63.9465L1383.02 64.4465C1397.75 64.534 1408.72 68.3141 1416.01 75.6962C1423.3 83.079 1427 94.1479 1427 108.991H1427.5H1428C1428 93.9944 1424.26 82.6292 1416.72 74.9936C1409.18 67.3574 1397.92 63.5349 1383.03 63.4465L1383.02 63.9465ZM1427.5 108.991H1427V437.22H1427.5H1428V108.991H1427.5ZM1427.5 437.22H1427C1427 451.973 1423.29 462.964 1415.96 470.298C1408.64 477.632 1397.6 481.391 1382.76 481.5L1382.76 482L1382.76 482.5C1397.76 482.39 1409.09 478.59 1416.67 471.005C1424.25 463.419 1428 452.129 1428 437.22H1427.5ZM1382.76 482V481.5H1144.05V482V482.5H1382.76V482ZM1144.05 482V481.5C1129.3 481.5 1118.3 477.785 1110.98 470.446C1103.65 463.107 1099.9 452.06 1099.81 437.217L1099.31 437.22L1098.81 437.223C1098.9 452.219 1102.69 463.562 1110.27 471.153C1117.85 478.745 1129.14 482.5 1144.05 482.5V482ZM1099.31 437.22H1099.81V108.991H1099.31H1098.81V437.22H1099.31ZM1099.31 108.991H1099.81C1099.81 94.1481 1103.52 83.1025 1110.84 75.7641C1118.17 68.4259 1129.21 64.7102 1144.05 64.7102V64.2102V63.7102C1129.05 63.7102 1117.72 67.4653 1110.14 75.0575C1102.56 82.6496 1098.81 93.9943 1098.81 108.991H1099.31ZM1144.05 64.2102L1143.69 63.8569L1143.65 63.9008L1144 64.2542L1144.36 64.6075L1144.4 64.5635L1144.05 64.2102ZM1159.25 153.771H1158.75V392.483H1159.25H1159.75V153.771H1159.25ZM1159.25 392.483L1158.75 392.488C1158.84 402.517 1161.38 410.123 1166.43 415.22C1171.48 420.318 1178.97 422.822 1188.79 422.822V422.322V421.822C1179.13 421.822 1171.94 419.36 1167.14 414.516C1162.34 409.67 1159.84 402.357 1159.75 392.479L1159.25 392.483ZM1188.79 422.322V422.822H1337.98V422.322V421.822H1188.79V422.322ZM1337.98 422.322V422.822C1348.01 422.822 1355.62 420.32 1360.72 415.221C1365.82 410.123 1368.32 402.514 1368.32 392.483H1367.82H1367.32C1367.32 402.36 1364.86 409.67 1360.01 414.514C1355.17 419.359 1347.86 421.822 1337.98 421.822V422.322ZM1367.82 392.483H1368.32V242.981H1367.82H1367.32V392.483H1367.82ZM1367.82 242.981H1368.32C1368.32 237.938 1367.06 234.063 1364.44 231.453C1361.83 228.844 1357.94 227.583 1352.88 227.583V228.083V228.583C1357.79 228.583 1361.37 229.805 1363.74 232.161C1366.1 234.517 1367.32 238.092 1367.32 242.981H1367.82ZM1352.88 228.083L1352.88 227.583C1338.04 227.496 1327 223.758 1319.67 216.468C1312.34 209.178 1308.64 198.253 1308.64 183.61H1308.14H1307.64C1307.64 198.411 1311.39 209.634 1318.97 217.176C1326.55 224.717 1337.88 228.495 1352.87 228.583L1352.88 228.083ZM1308.14 183.61H1308.64V138.874H1308.14H1307.64V183.61H1308.14ZM1308.14 138.874L1308.64 138.863C1308.53 133.821 1307.21 129.922 1304.6 127.263C1301.99 124.601 1298.17 123.258 1293.21 123.169L1293.2 123.668L1293.19 124.168C1297.99 124.255 1301.52 125.549 1303.89 127.963C1306.26 130.379 1307.53 133.995 1307.64 138.885L1308.14 138.874ZM1293.2 123.668L1293.2 123.168L1189.05 123.476L1189.05 123.976L1189.05 124.476L1293.2 124.168L1293.2 123.668ZM1189.05 123.976V123.476C1179.02 123.476 1171.41 125.978 1166.31 131.077C1161.21 136.175 1158.71 143.785 1158.71 153.815H1159.21H1159.71C1159.71 143.938 1162.17 136.628 1167.02 131.784C1171.86 126.94 1179.17 124.476 1189.05 124.476V123.976ZM1159.21 153.815L1159.56 154.168L1159.61 154.124L1159.25 153.771L1158.9 153.418L1158.86 153.462L1159.21 153.815ZM1725.83 93.7855H1726.33C1726.33 83.9087 1728.79 76.5987 1733.63 71.7543C1738.48 66.91 1745.79 64.4465 1755.66 64.4465V63.9465V63.4465C1745.63 63.4465 1738.02 65.9489 1732.93 71.0472C1727.83 76.1456 1725.33 83.7551 1725.33 93.7855H1725.83ZM1755.66 63.9465V64.4465C1765.54 64.4465 1772.85 66.91 1777.7 71.7543C1782.54 76.5987 1785 83.9087 1785 93.7855H1785.5H1786C1786 83.7551 1783.5 76.1456 1778.4 71.0472C1773.3 65.9489 1765.7 63.4465 1755.66 63.4465V63.9465ZM1785.5 93.7855H1785V242.981H1785.5H1786V93.7855H1785.5ZM1785.5 242.981H1785C1785 257.823 1781.3 268.869 1773.97 276.207C1766.64 283.545 1755.61 287.261 1740.77 287.261V287.761V288.261C1755.76 288.261 1767.1 284.506 1774.68 276.914C1782.26 269.322 1786 257.977 1786 242.981H1785.5ZM1740.77 287.761V287.261H1688.56V287.761V288.261H1740.77V287.761ZM1688.56 287.761V287.261C1683.52 287.261 1679.64 288.522 1677.03 291.132C1674.42 293.742 1673.16 297.616 1673.16 302.659H1673.66H1674.16C1674.16 297.77 1675.38 294.195 1677.74 291.839C1680.1 289.483 1683.67 288.261 1688.56 288.261V287.761ZM1673.66 302.659H1673.16V451.854H1673.66H1674.16V302.659H1673.66ZM1673.66 451.854H1673.16C1673.16 461.725 1670.6 469.033 1665.56 473.878C1660.52 478.727 1652.91 481.193 1642.64 481.193V481.693V482.193C1653.06 482.193 1660.96 479.693 1666.26 474.599C1671.56 469.501 1674.16 461.889 1674.16 451.854H1673.66ZM1642.64 481.693V481.193H1599.09V481.693V482.193H1642.64V481.693ZM1599.09 481.693V481.193C1589.21 481.193 1581.8 478.73 1576.75 473.878C1571.71 469.026 1568.95 461.709 1568.56 451.834L1568.06 451.854L1567.56 451.873C1567.96 461.905 1570.77 469.508 1576.06 474.599C1581.35 479.69 1589.05 482.193 1599.09 482.193V481.693ZM1568.06 451.854H1568.56V302.659H1568.06H1567.56V451.854H1568.06ZM1568.06 302.659H1568.56C1568.56 297.616 1567.3 293.742 1564.69 291.132C1562.08 288.522 1558.21 287.261 1553.16 287.261V287.761V288.261C1558.05 288.261 1561.63 289.483 1563.98 291.839C1566.34 294.195 1567.56 297.77 1567.56 302.659H1568.06ZM1553.16 287.761V287.261H1502.14V287.761V288.261H1553.16V287.761ZM1502.14 287.761V287.261C1487.3 287.261 1476.27 283.545 1468.94 276.207C1461.61 268.869 1457.91 257.823 1457.91 242.981H1457.41H1456.91C1456.91 257.977 1460.65 269.322 1468.23 276.914C1475.81 284.506 1487.15 288.261 1502.14 288.261V287.761ZM1457.41 242.981H1457.91V93.7855H1457.41H1456.91V242.981H1457.41ZM1457.41 93.7855H1457.91C1457.91 83.9087 1460.37 76.5987 1465.21 71.7543C1470.06 66.91 1477.37 64.4465 1487.25 64.4465V63.9465V63.4465C1477.22 63.4465 1469.61 65.9489 1464.51 71.0472C1459.41 76.1456 1456.91 83.7551 1456.91 93.7855H1457.41ZM1487.25 63.9465V64.4465C1497.12 64.4465 1504.43 66.8886 1509.28 71.6847C1514.12 76.4799 1516.58 83.7123 1516.58 93.4779H1517.08H1517.58C1517.58 83.5559 1515.08 76.0227 1509.98 70.9741C1504.88 65.9264 1497.27 63.4465 1487.25 63.4465V63.9465ZM1517.08 93.4779H1516.58V198.2H1517.08H1517.58V93.4779H1517.08ZM1517.08 198.2H1516.58C1516.58 208.231 1519.09 215.84 1524.19 220.938C1529.28 226.037 1536.89 228.539 1546.92 228.539V228.039V227.539C1537.05 227.539 1529.74 225.076 1524.89 220.231C1520.05 215.387 1517.58 208.077 1517.58 198.2H1517.08ZM1546.92 228.039V228.539H1696.12V228.039V227.539H1546.92V228.039ZM1696.12 228.039V228.539C1706.15 228.539 1713.76 226.037 1718.86 220.938C1723.96 215.84 1726.46 208.231 1726.46 198.2H1725.96H1725.46C1725.46 208.077 1722.99 215.387 1718.15 220.231C1713.31 225.076 1706 227.539 1696.12 227.539V228.039ZM1725.96 198.2H1726.46V93.7855H1725.96H1725.46V198.2H1725.96ZM1725.96 93.7855V93.2855H1725.83V93.7855V94.2855H1725.96V93.7855ZM588.675 396.526V396.026C585.276 396.026 582.001 396.644 579.003 397.757L579.177 398.226L579.35 398.694C582.239 397.622 585.397 397.026 588.675 397.026V396.526ZM588.735 396.526V396.026H588.675V396.526V397.026H588.735V396.526ZM616.532 424.323H617.032C617.032 408.692 604.366 396.026 588.735 396.026V396.526V397.026C603.814 397.026 616.032 409.244 616.032 424.323H616.532ZM588.735 452.12V452.62C604.366 452.62 617.032 439.954 617.032 424.323H616.532H616.032C616.032 439.402 603.814 451.62 588.735 451.62V452.12ZM571.742 446.293L571.436 446.689C576.223 450.395 582.216 452.62 588.735 452.62V452.12V451.62C582.448 451.62 576.668 449.475 572.048 445.898L571.742 446.293ZM538.604 474.454L538.734 474.937C552.89 471.129 564.638 460.091 572.179 446.536L571.742 446.293L571.305 446.05C563.855 459.442 552.298 470.253 538.475 473.971L538.604 474.454ZM296.203 481.373C296.197 481.873 296.198 481.873 296.2 481.873C296.201 481.873 296.204 481.873 296.207 481.873C296.213 481.873 296.222 481.873 296.235 481.873C296.26 481.874 296.298 481.874 296.348 481.875C296.447 481.876 296.596 481.878 296.792 481.88C297.185 481.885 297.768 481.891 298.531 481.899C300.055 481.916 302.296 481.939 305.16 481.965C310.888 482.017 319.11 482.081 329.088 482.127C349.043 482.221 376.02 482.246 404.106 481.975C432.191 481.704 461.39 481.136 485.786 480.042C510.158 478.948 529.802 477.328 538.734 474.937L538.604 474.454L538.475 473.971C529.67 476.329 510.145 477.948 485.741 479.043C461.362 480.136 432.177 480.704 404.096 480.975C376.017 481.246 349.045 481.221 329.092 481.127C319.116 481.081 310.896 481.017 305.169 480.965C302.305 480.939 300.065 480.916 298.541 480.9C297.779 480.891 297.196 480.885 296.804 480.88C296.608 480.878 296.459 480.876 296.36 480.875C296.31 480.874 296.272 480.874 296.247 480.873C296.235 480.873 296.225 480.873 296.219 480.873C296.216 480.873 296.214 480.873 296.212 480.873C296.21 480.873 296.21 480.873 296.203 481.373ZM243.25 463.287L242.945 463.682C257.716 475.097 276.182 481.873 296.203 481.873V481.373V480.873C276.412 480.873 258.159 474.175 243.556 462.891L243.25 463.287ZM186.352 440.285L186.02 440.659C203.344 456.031 223.395 463.359 243.24 463.787L243.25 463.287L243.261 462.787C223.656 462.365 203.833 455.127 186.684 439.911L186.352 440.285ZM159.302 407.083L158.886 407.36C166.778 419.197 174.84 431.293 186.031 440.668L186.352 440.285L186.673 439.901C175.61 430.634 167.624 418.662 159.718 406.805L159.302 407.083ZM158.313 405.6L157.897 405.877L158.886 407.36L159.302 407.083L159.718 406.805L158.729 405.322L158.313 405.6ZM143.019 387.848L142.69 388.224C148.566 393.347 153.545 399.41 157.898 405.879L158.313 405.6L158.728 405.321C154.341 398.801 149.306 392.665 143.347 387.471L143.019 387.848ZM84.5427 366.302L84.5448 366.802C105.249 366.711 125.946 373.622 142.69 388.224L143.019 387.848L143.347 387.471C126.408 372.698 105.471 365.711 84.5405 365.802L84.5427 366.302ZM84.0968 364.886L83.6187 365.033C83.7646 365.509 83.9113 365.989 84.0683 366.46L84.5427 366.302L85.017 366.144C84.8646 365.687 84.7215 365.219 84.5749 364.74L84.0968 364.886ZM83.7537 363.784L83.2777 363.936C83.3944 364.3 83.5069 364.667 83.6187 365.033L84.0968 364.886L84.5749 364.74C84.4635 364.376 84.3489 364.001 84.2297 363.63L83.7537 363.784ZM83.7233 357.168L83.2394 357.042C82.6125 359.456 82.5779 361.551 83.2739 363.924L83.7537 363.784L84.2335 363.643C83.5943 361.464 83.6203 359.554 84.2073 357.294L83.7233 357.168ZM87.6076 347.67L87.1705 347.427C85.4842 350.462 84.1319 353.657 83.2398 357.041L83.7233 357.168L84.2068 357.296C85.0748 354.003 86.3929 350.886 88.0446 347.913L87.6076 347.67ZM127.937 352.222L128.09 351.746C114.673 347.416 100.92 346.013 87.5643 347.172L87.6076 347.67L87.6508 348.168C100.878 347.021 114.497 348.41 127.783 352.698L127.937 352.222ZM174.548 381.141L174.908 380.795C161.924 367.292 145.647 357.171 128.085 351.744L127.937 352.222L127.789 352.7C145.185 358.075 161.317 368.104 174.187 381.488L174.548 381.141ZM182.737 390.609L183.121 390.289C180.417 387.053 177.685 383.783 174.914 380.801L174.548 381.141L174.182 381.481C176.932 384.441 179.647 387.69 182.353 390.93L182.737 390.609ZM190.995 400.138L191.36 399.796C188.625 396.878 185.888 393.602 183.121 390.289L182.737 390.609L182.353 390.93C185.117 394.238 187.873 397.537 190.63 400.479L190.995 400.138ZM211.934 416.554L212.191 416.126C204.546 411.533 197.42 406.036 191.354 399.789L190.995 400.138L190.636 400.486C196.769 406.802 203.966 412.351 211.676 416.983L211.934 416.554ZM208.747 392.824H208.247C208.247 401.094 209.376 409.088 211.451 416.686L211.934 416.554L212.416 416.423C210.364 408.908 209.247 401.002 209.247 392.824H208.747ZM208.747 347.791H208.247V392.824H208.747H209.247V347.791H208.747ZM55.2895 174.518H54.7895C54.7895 264.02 121.985 337.849 208.688 348.288L208.747 347.791L208.807 347.295C122.601 336.916 55.7895 263.508 55.7895 174.518H55.2895ZM229.807 0V-0.5C133.153 -0.5 54.7895 77.8639 54.7895 174.518H55.2895H55.7895C55.7895 78.4162 133.706 0.5 229.807 0.5V0ZM403.354 156.037L403.851 155.985C394.6 68.0342 320.192 -0.5 229.807 -0.5V0V0.5C319.675 0.5 393.658 68.6425 402.857 156.09L403.354 156.037ZM522.163 246.411L522.572 246.123C496.001 208.367 457.959 174.866 403.521 155.566L403.354 156.037L403.187 156.508C457.404 175.73 495.286 209.089 521.754 246.698L522.163 246.411ZM503.161 274.932H503.661C503.661 262.293 511.376 251.454 522.356 246.872L522.163 246.411L521.971 245.949C510.631 250.682 502.661 261.875 502.661 274.932H503.161ZM534.052 305.823V305.323C517.267 305.323 503.661 291.717 503.661 274.932H503.161H502.661C502.661 292.269 516.715 306.323 534.052 306.323V305.823ZM551.96 300.107L551.669 299.7C546.7 303.241 540.62 305.323 534.052 305.323V305.823V306.323C540.835 306.323 547.116 304.172 552.25 300.514L551.96 300.107ZM579.177 398.226L579.671 398.153C575.586 370.388 567.678 335.274 552.419 299.909L551.96 300.107L551.5 300.305C566.716 335.569 574.606 370.593 578.682 398.299L579.177 398.226ZM117.772 145.477L118.263 145.575C127.173 100.781 164.598 65.2012 211.501 60.3086L211.449 59.8113L211.397 59.314C164.047 64.2533 126.275 100.168 117.282 145.38L117.772 145.477ZM151.001 145.477V144.977H117.772V145.477V145.977H151.001V145.477ZM171.454 165.93H171.954C171.954 154.365 162.565 144.977 151.001 144.977V145.477V145.977C162.013 145.977 170.954 154.918 170.954 165.93H171.454ZM171.454 260.153H171.954V165.93H171.454H170.954V260.153H171.454ZM228.928 273.05L228.899 272.551C208.239 273.759 188.608 268.957 171.693 259.714L171.454 260.153L171.214 260.592C188.287 269.921 208.104 274.769 228.957 273.549L228.928 273.05ZM234.937 261.064L234.49 260.84L228.481 272.826L228.928 273.05L229.375 273.274L235.384 261.288L234.937 261.064ZM329.494 160.013L329.24 159.582C288.585 183.513 255.684 218.664 234.49 260.839L234.937 261.064L235.383 261.288C256.491 219.285 289.258 184.277 329.747 160.444L329.494 160.013ZM211.449 59.8417L211.501 60.3389C272.332 53.9659 325.491 99.6641 328.995 160.042L329.494 160.013L329.993 159.984C326.456 99.0394 272.798 52.9116 211.397 59.3444L211.449 59.8417ZM211.449 59.8113H210.949V59.8417H211.449H211.949V59.8113H211.449ZM382.689 401.564V402.064C430.73 402.064 469.674 363.119 469.674 315.079H469.174H468.674C468.674 362.567 430.178 401.064 382.689 401.064V401.564ZM296.204 315.079H295.704C295.704 363.119 334.649 402.064 382.689 402.064V401.564V401.064C335.201 401.064 296.704 362.567 296.704 315.079H296.204ZM382.689 228.594V228.094C334.649 228.094 295.704 267.038 295.704 315.079H296.204H296.704C296.704 267.59 335.201 229.094 382.689 229.094V228.594ZM469.174 315.079H469.674C469.674 267.038 430.73 228.094 382.689 228.094V228.594V229.094C430.178 229.094 468.674 267.59 468.674 315.079H469.174ZM436.37 296.963H436.87C436.87 288.558 430.057 281.745 421.653 281.745V282.245V282.745C429.505 282.745 435.87 289.111 435.87 296.963H436.37ZM436.37 326.398H436.87V296.963H436.37H435.87V326.398H436.37ZM421.653 341.116V341.616C430.057 341.616 436.87 334.803 436.87 326.398H436.37H435.87C435.87 334.25 429.505 340.616 421.653 340.616V341.116ZM406.935 326.398H406.435C406.435 334.803 413.248 341.616 421.653 341.616V341.116V340.616C413.801 340.616 407.435 334.25 407.435 326.398H406.935ZM406.935 296.963H406.435V326.398H406.935H407.435V296.963H406.935ZM421.653 282.245V281.745C413.248 281.745 406.435 288.558 406.435 296.963H406.935H407.435C407.435 289.111 413.801 282.745 421.653 282.745V282.245ZM545.008 285.055L544.943 284.559C544.602 284.604 544.254 284.627 543.9 284.627V285.127V285.627C544.298 285.627 544.689 285.601 545.073 285.551L545.008 285.055ZM545.008 285.055L545.073 285.551C549.48 284.975 552.882 281.2 552.882 276.63H552.382H551.882C551.882 280.693 548.858 284.048 544.943 284.559L545.008 285.055ZM552.382 276.63H552.882V262.55H552.382H551.882V276.63H552.382ZM552.382 262.55H552.882C552.882 257.582 548.862 253.553 543.9 253.553V254.053V254.553C548.308 254.553 551.882 258.132 551.882 262.55H552.382ZM543.9 254.053V253.553C538.939 253.553 534.919 257.582 534.919 262.55H535.419H535.919C535.919 258.132 539.493 254.553 543.9 254.553V254.053ZM543.9 285.127V284.627C539.493 284.627 535.919 281.047 535.919 276.63H535.419H534.919C534.919 281.598 538.939 285.627 543.9 285.627V285.127ZM509.017 213.148L509.419 212.85C487.23 183.003 457.081 165.518 436.606 156.328L436.401 156.784L436.196 157.241C456.589 166.394 486.569 183.79 508.616 213.446L509.017 213.148ZM540.213 123.568L539.716 123.629C543.038 150.458 535.279 172.747 526.681 188.338C522.382 196.133 517.875 202.25 514.445 206.416C512.729 208.499 511.284 210.094 510.269 211.167C509.761 211.703 509.361 212.109 509.088 212.38C508.952 212.515 508.848 212.617 508.778 212.685C508.743 212.718 508.717 212.744 508.7 212.76C508.691 212.768 508.685 212.775 508.68 212.779C508.678 212.781 508.677 212.782 508.676 212.783C508.675 212.783 508.675 212.784 508.675 212.784C508.675 212.784 508.675 212.784 509.017 213.148C509.36 213.512 509.36 213.512 509.361 213.511C509.361 213.511 509.362 213.51 509.362 213.51C509.364 213.509 509.366 213.507 509.368 213.504C509.373 213.5 509.38 213.493 509.39 213.484C509.409 213.466 509.437 213.439 509.473 213.403C509.547 213.333 509.654 213.228 509.794 213.089C510.073 212.811 510.48 212.398 510.995 211.854C512.024 210.766 513.485 209.154 515.216 207.052C518.678 202.848 523.222 196.68 527.556 188.821C536.225 173.103 544.063 150.602 540.709 123.506L540.213 123.568ZM453.728 24.7318L453.606 25.2169C500.102 36.8483 533.854 76.0335 539.716 123.629L540.213 123.568L540.709 123.506C534.797 75.5129 500.757 35.9815 453.849 24.2468L453.728 24.7318ZM357.987 40.1475L358.264 40.5637C372.092 31.3625 390.362 26.1219 407.985 23.8869C425.608 21.6518 442.52 22.4303 453.606 25.2168L453.728 24.7318L453.85 24.2469C442.611 21.422 425.568 20.6489 407.859 22.8948C390.15 25.1408 371.713 30.4137 357.71 39.7312L357.987 40.1475ZM395.532 88.3059L395.974 88.0722C379.741 57.3592 358.764 40.1366 358.303 39.7602L357.987 40.1475L357.671 40.5348C358.079 40.8684 378.944 57.9917 395.09 88.5395L395.532 88.3059ZM415.948 88.3059V87.8059H395.532V88.3059V88.8059H415.948V88.3059ZM436.401 108.759H436.901C436.901 97.1941 427.513 87.8059 415.948 87.8059V88.3059V88.8059C426.96 88.8059 435.901 97.7463 435.901 108.759H436.401ZM436.401 156.784H436.901V108.759H436.401H435.901V156.784H436.401ZM78.6873 348.763L78.6023 348.27L78.5886 348.273L78.6735 348.765L78.7585 349.258L78.7722 349.256L78.6873 348.763ZM78.6873 348.733H78.1873V348.763H78.6873H79.1873V348.733H78.6873ZM78.6735 348.765L79.1346 348.959L79.1483 348.926L78.6873 348.733L78.2262 348.539L78.2125 348.572L78.6735 348.765ZM63.7572 352.556L63.9171 353.03C68.7443 351.401 73.6915 350.133 78.7587 349.258L78.6735 348.765L78.5884 348.273C73.4691 349.157 68.472 350.437 63.5973 352.082L63.7572 352.556ZM63.6966 352.708L64.0499 353.062C64.168 352.944 64.2572 352.758 64.2572 352.556H63.7572H63.2572C63.2572 352.506 63.2689 352.469 63.2787 352.446C63.2875 352.426 63.3053 352.392 63.3432 352.354L63.6966 352.708ZM63.499 353.255L63.9672 353.43C64.0348 353.25 64.1068 353.058 64.1709 352.866L63.6966 352.708L63.2222 352.55C63.165 352.721 63.0997 352.896 63.0308 353.079L63.499 353.255ZM63.3021 353.8L63.7764 353.958C63.8335 353.787 63.8985 353.614 63.9672 353.43L63.499 353.255L63.0308 353.079C62.9633 353.259 62.8917 353.45 62.8277 353.642L63.3021 353.8ZM62.6041 356.44L63.0938 356.542C63.2715 355.682 63.5094 354.819 63.7796 353.948L63.3021 353.8L62.8245 353.652C62.5485 354.541 62.3009 355.438 62.1145 356.339L62.6041 356.44ZM62.0882 361.235L62.5882 361.242C62.6182 359.235 62.7067 358.299 63.0924 356.548L62.6041 356.44L62.1158 356.333C61.7126 358.163 61.619 359.168 61.5883 361.227L62.0882 361.235ZM62.1793 363.966L62.6768 363.916C62.5887 363.035 62.5882 362.149 62.5882 361.235H62.0882H61.5882C61.5882 362.141 61.5878 363.077 61.6818 364.016L62.1793 363.966ZM62.2019 364.215L62.6994 364.165C62.6932 364.104 62.6878 364.05 62.6838 364.008C62.6819 363.987 62.6805 363.971 62.6796 363.96C62.6792 363.955 62.679 363.952 62.679 363.951C62.6788 363.948 62.6793 363.955 62.6793 363.966H62.1793H61.6793C61.6793 364.024 61.6947 364.169 61.7044 364.266L62.2019 364.215ZM62.2399 364.664H62.7399C62.7399 364.56 62.7146 364.317 62.6994 364.165L62.2019 364.215L61.7044 364.266C61.7131 364.352 61.7223 364.443 61.7294 364.522C61.7329 364.561 61.7357 364.595 61.7376 364.623C61.7397 364.653 61.7399 364.665 61.7399 364.664H62.2399ZM62.4827 366.06L62.973 365.962C62.8825 365.509 62.794 365.036 62.7356 364.598L62.2399 364.664L61.7443 364.73C61.8072 365.202 61.9009 365.7 61.9924 366.158L62.4827 366.06ZM63.1503 368.7L63.6263 368.547C63.3612 367.722 63.153 366.832 62.9723 365.959L62.4827 366.06L61.9931 366.161C62.1765 367.048 62.3932 367.978 62.6743 368.853L63.1503 368.7ZM63.1806 368.791L63.5343 368.437C63.5843 368.488 63.6214 368.553 63.6392 368.624C63.6527 368.678 63.6503 368.725 63.6503 368.7H63.1503H62.6503C62.6503 368.738 62.6413 368.959 62.827 369.144L63.1806 368.791ZM76.8059 366.576L76.763 366.078C72.1544 366.474 67.5784 367.237 63.0656 368.304L63.1806 368.791L63.2957 369.278C67.7652 368.221 72.2929 367.466 76.8487 367.074L76.8059 366.576ZM76.1079 364.27L75.6217 364.386C75.8088 365.165 76.0572 365.972 76.3354 366.745L76.8059 366.576L77.2763 366.406C77.0083 365.662 76.7712 364.891 76.5941 364.153L76.1079 364.27ZM76.4721 355.105L75.9881 354.979C75.1858 358.065 74.8995 361.215 75.6204 364.381L76.1079 364.27L76.5954 364.158C75.9205 361.194 76.1803 358.214 76.956 355.231L76.4721 355.105ZM78.6735 348.765L78.2125 348.572C77.3338 350.665 76.5393 352.775 75.987 354.984L76.4721 355.105L76.9571 355.226C77.4916 353.088 78.2643 351.032 79.1346 348.959L78.6735 348.765ZM56.0779 370.854L56.5575 370.713C55.126 365.852 54.8551 360.843 55.7152 355.891L55.2226 355.805L54.7299 355.72C53.8438 360.821 54.123 365.986 55.5983 370.996L56.0779 370.854ZM46.9742 374.344L47.179 374.8C50.1342 373.473 53.1822 372.326 56.2332 371.33L56.0779 370.854L55.9226 370.379C52.8438 371.385 49.762 372.544 46.7694 373.888L46.9742 374.344ZM45.4266 360.689L44.9297 360.633C44.407 365.337 44.8035 370.217 46.5093 374.528L46.9742 374.344L47.4391 374.16C45.8069 370.035 45.4144 365.326 45.9235 360.744L45.4266 360.689ZM55.2226 355.805L55.0241 355.347C51.6397 356.81 48.3791 358.456 45.1817 360.253L45.4266 360.689L45.6715 361.125C48.8431 359.342 52.0727 357.713 55.4211 356.264L55.2226 355.805ZM0.94071 415.189L1.15214 414.736C0.851351 414.596 0.697071 414.358 0.613697 414.13C0.571743 414.015 0.550442 413.909 0.539887 413.832C0.534675 413.795 0.532267 413.765 0.531173 413.747C0.530628 413.738 0.530416 413.733 0.53034 413.73C0.530303 413.729 0.5303 413.728 0.530306 413.729C0.530309 413.729 0.530315 413.729 0.53032 413.73C0.530322 413.73 0.530324 413.731 0.530326 413.731C0.530327 413.731 0.530327 413.732 0.530328 413.732C0.530328 413.732 0.530328 413.732 0.530328 413.732C0.530328 413.733 0.530329 413.733 0.0303285 413.733C-0.469672 413.733 -0.469671 413.733 -0.469671 413.733C-0.469671 413.733 -0.469671 413.733 -0.469671 413.734C-0.46967 413.734 -0.469669 413.734 -0.469668 413.735C-0.469666 413.735 -0.469662 413.736 -0.469656 413.737C-0.469644 413.739 -0.469625 413.741 -0.469594 413.743C-0.469532 413.747 -0.469424 413.753 -0.469239 413.759C-0.468869 413.772 -0.468192 413.788 -0.466959 413.808C-0.464497 413.849 -0.459791 413.903 -0.450778 413.969C-0.432882 414.099 -0.397282 414.277 -0.325437 414.474C-0.181214 414.868 0.119697 415.358 0.729279 415.643L0.94071 415.189ZM2.51869 414.673L2.08772 414.42C1.89895 414.741 1.469 414.886 1.15477 414.738L0.94071 415.189L0.726649 415.641C1.56555 416.039 2.53153 415.638 2.94966 414.927L2.51869 414.673ZM40.299 377.622L40.0617 377.181C24.8394 385.387 11.4784 397.895 2.08398 414.426L2.51869 414.673L2.9534 414.92C12.2519 398.557 25.4736 386.182 40.5363 378.062L40.299 377.622ZM37.7196 365.483L37.2199 365.501C37.3736 369.742 38.2035 373.929 39.8381 377.815L40.299 377.622L40.7599 377.428C39.1779 373.667 38.3691 369.6 38.2193 365.465L37.7196 365.483ZM0 413.763L0.469423 413.935C7.86648 393.767 21.2719 377.341 38.0019 365.896L37.7196 365.483L37.4373 365.071C20.5443 376.627 7.00288 393.217 -0.469423 413.591L0 413.763ZM0.0303285 413.733L-0.323419 413.379L-0.353748 413.41L0 413.763L0.353748 414.116L0.384076 414.086L0.0303285 413.733ZM535.419 262.55H534.919V276.63H535.419H535.919V262.55H535.419Z" fill="#EDFFAD" mask="url(#path-1-inside-1_4758_136)"/>
</svg>
