<svg width="1440" height="482" viewBox="0 0 1440 482" fill="none" xmlns="http://www.w3.org/2000/svg">
<mask id="path-1-inside-1_4758_137" fill="white">
<path d="M806.954 63.9465C826.862 63.9465 836.793 73.8782 836.793 93.7855L837.101 213.142C837.101 223.073 842.067 228.083 852.042 228.083C881.882 228.083 896.779 242.981 896.779 272.82L896.471 436.956C896.471 466.795 881.574 481.693 851.735 481.693H612.979C583.14 481.693 568.242 466.795 568.242 436.956V377.278C568.242 357.371 578.174 347.439 598.081 347.439C617.989 347.439 627.92 357.371 627.92 377.278V392.176C627.92 412.083 637.852 422.015 657.759 422.015H747.276C767.184 422.015 777.115 412.083 777.115 392.176V93.4779C777.115 73.7903 787.047 63.9465 806.954 63.9465Z"/>
<path d="M971.083 64.2542L1210.1 63.9465C1239.72 64.1223 1254.58 79.1517 1254.58 108.991V437.22C1254.58 466.883 1239.68 481.78 1209.84 482H971.127C941.463 482 926.566 467.059 926.39 437.22V108.991C926.39 79.1517 941.288 64.2102 971.127 64.2102L971.083 64.2542ZM986.332 153.771V392.483C986.507 412.391 996.395 422.322 1015.86 422.322H1165.06C1184.97 422.322 1194.9 412.391 1194.9 392.483V242.981C1194.9 233.049 1189.93 228.083 1179.96 228.083C1150.12 227.907 1135.22 213.054 1135.22 183.61V138.874C1135 128.942 1130.03 123.844 1120.28 123.668L1016.13 123.976C996.219 123.976 986.288 133.908 986.288 153.815L986.332 153.771Z"/>
<path d="M1552.9 93.7855C1552.9 73.8782 1562.84 63.9465 1582.74 63.9465C1602.65 63.9465 1612.58 73.8782 1612.58 93.7855V242.981C1612.58 272.82 1597.68 287.761 1567.85 287.761H1515.64C1505.71 287.761 1500.74 292.727 1500.74 302.659V451.854C1500.74 471.761 1490.41 481.693 1469.72 481.693H1426.17C1406.26 481.693 1395.93 471.761 1395.14 451.854V302.659C1395.14 292.727 1390.17 287.761 1380.24 287.761H1329.22C1299.38 287.761 1284.48 272.82 1284.48 242.981V93.7855C1284.48 73.8782 1294.42 63.9465 1314.32 63.9465C1334.23 63.9465 1344.16 73.7903 1344.16 93.4779V198.2C1344.16 218.107 1354.09 228.039 1374 228.039H1523.2C1543.1 228.039 1553.04 218.107 1553.04 198.2V93.7855H1552.9Z"/>
<path d="M248.731 282.245C256.859 282.245 263.449 288.835 263.449 296.963V326.398C263.449 334.526 256.859 341.116 248.731 341.116C240.602 341.116 234.013 334.526 234.013 326.398V296.963C234.013 288.835 240.602 282.245 248.731 282.245Z"/>
<path fill-rule="evenodd" clip-rule="evenodd" d="M406.255 398.226C409.198 397.133 412.415 396.526 415.753 396.526H415.813C431.168 396.526 443.61 408.968 443.61 424.323C443.61 439.678 431.168 452.12 415.813 452.12C409.411 452.12 403.523 449.935 398.82 446.293C391.325 459.767 379.672 470.691 365.682 474.454C330.208 483.952 123.282 481.373 123.282 481.373C103.375 481.373 85.0157 474.636 70.3284 463.287C50.6037 462.862 30.6667 455.579 13.4303 440.285C2.30296 430.963 -5.72066 418.93 -13.6199 407.083L-14.609 405.6C-18.9788 399.106 -23.9858 393.006 -29.9032 387.848C-46.745 373.16 -67.5621 366.211 -88.3792 366.302C-88.5339 365.838 -88.6788 365.364 -88.8251 364.886C-88.9367 364.522 -89.0502 364.151 -89.1682 363.784C-89.8358 361.508 -89.8055 359.505 -89.1986 357.168C-88.3185 353.83 -86.9833 350.674 -85.3143 347.67C-72.0229 346.517 -58.337 347.913 -44.985 352.222C-27.5059 357.623 -11.3013 367.698 1.62595 381.141C4.38658 384.112 7.11012 387.372 9.81493 390.609C12.5808 393.92 15.327 397.207 18.0732 400.138C24.1727 406.419 31.3343 411.942 39.0118 416.554C36.9483 408.998 35.8254 401.048 35.8254 392.824V347.791C-50.6293 337.383 -117.632 263.764 -117.632 174.518C-117.632 78.14 -39.4924 0 56.8853 0C147.012 0 221.207 68.3383 230.432 156.037C284.76 175.298 322.721 208.728 349.241 246.411C338.082 251.068 330.239 262.084 330.239 274.932C330.239 291.993 344.069 305.823 361.131 305.823C367.806 305.823 373.986 303.706 379.038 300.107C394.275 335.421 402.174 370.491 406.255 398.226ZM38.5273 59.8113C-8.59946 64.7273 -46.1978 100.475 -55.1497 145.477H-21.9212C-10.6327 145.477 -1.46828 154.641 -1.46828 165.93V260.153C15.5253 269.439 35.2499 274.264 56.0063 273.05L62.0148 261.064C83.1657 218.974 116 183.895 156.572 160.013C153.052 99.3517 99.6434 53.4387 38.5273 59.8417V59.8113ZM296.253 315.079C296.253 362.843 257.532 401.564 209.767 401.564C162.003 401.564 123.282 362.843 123.282 315.079C123.282 267.314 162.003 228.594 209.767 228.594C257.532 228.594 296.253 267.314 296.253 315.079Z"/>
<path d="M370.978 285.127C371.354 285.127 371.724 285.102 372.086 285.055C376.247 284.511 379.46 280.947 379.46 276.63V262.55C379.46 257.857 375.663 254.053 370.978 254.053C366.294 254.053 362.497 257.857 362.497 262.55V276.63C362.497 281.323 366.294 285.127 370.978 285.127Z"/>
<path d="M263.479 156.784C283.913 165.956 313.978 183.396 336.096 213.148C336.096 213.148 373.967 177.492 367.291 123.568C361.404 75.7732 327.508 36.4149 280.806 24.7318C258.481 19.1204 212.896 21.6288 185.065 40.1475C185.5 40.5025 206.42 57.6755 222.61 88.3059H243.026C254.315 88.3059 263.479 97.4702 263.479 108.759V156.784Z"/>
<path d="M-94.2483 348.765L-94.2346 348.763V348.733L-94.2483 348.765Z"/>
<path d="M-94.2483 348.765C-99.3416 349.645 -104.314 350.919 -109.165 352.556C-109.165 352.617 -109.195 352.677 -109.225 352.708C-109.286 352.89 -109.355 353.073 -109.423 353.255C-109.491 353.437 -109.559 353.618 -109.62 353.8C-109.893 354.68 -110.136 355.56 -110.318 356.44C-110.712 358.231 -110.803 359.202 -110.834 361.235C-110.834 362.145 -110.834 363.056 -110.743 363.966C-110.743 363.991 -110.732 364.095 -110.72 364.215C-110.703 364.386 -110.682 364.593 -110.682 364.664C-110.621 365.119 -110.53 365.605 -110.439 366.06C-110.257 366.94 -110.045 367.85 -109.772 368.7C-109.772 368.73 -109.772 368.761 -109.741 368.791C-105.25 367.729 -100.698 366.97 -96.116 366.576C-96.3891 365.817 -96.6319 365.028 -96.8139 364.27C-97.5119 361.205 -97.2388 358.14 -96.4498 355.105C-95.9064 352.931 -95.1228 350.848 -94.2483 348.765Z"/>
<path d="M-117.699 355.805C-118.572 360.832 -118.297 365.919 -116.844 370.854C-119.909 371.856 -122.974 373.009 -125.948 374.344C-127.617 370.126 -128.011 365.331 -127.495 360.689C-124.311 358.899 -121.066 357.261 -117.699 355.805Z"/>
<path d="M-172.892 413.733C-172.892 413.733 -172.892 414.765 -171.981 415.189C-171.405 415.463 -170.707 415.189 -170.403 414.673C-161.057 398.226 -147.765 385.785 -132.623 377.622C-134.231 373.798 -135.051 369.671 -135.202 365.483C-152.014 376.984 -165.487 393.492 -172.922 413.763L-172.892 413.733Z"/>
</mask>
<path d="M-117.694 355.773L-117.94 355.73L-117.946 355.763L-117.699 355.805L-117.453 355.848L-117.447 355.815L-117.694 355.773ZM185.035 40.1778L185.212 40.3544L185.242 40.324L185.065 40.1475L184.888 39.9709L184.858 40.0013L185.035 40.1778ZM836.793 93.7855H836.293V93.7868L836.793 93.7855ZM837.101 213.142H837.601V213.14L837.101 213.142ZM896.779 272.82L897.279 272.82V272.82H896.779ZM896.471 436.956L895.971 436.955V436.956H896.471ZM971.083 64.2542L970.729 63.9008L969.875 64.7557L971.083 64.7542L971.083 64.2542ZM1210.1 63.9465L1210.11 63.4465L1210.1 63.4465L1210.1 63.9465ZM1209.84 482V482.5L1209.84 482.5L1209.84 482ZM926.39 437.22H925.89V437.223L926.39 437.22ZM971.127 64.2102L971.48 64.5635L972.333 63.7102H971.127V64.2102ZM986.332 153.771H986.832V152.563L985.978 153.418L986.332 153.771ZM986.332 392.483H985.832L985.832 392.488L986.332 392.483ZM1179.96 228.083L1179.95 228.583H1179.96V228.083ZM1135.22 138.874H1135.72L1135.72 138.863L1135.22 138.874ZM1120.28 123.668L1120.29 123.168L1120.28 123.168L1120.28 123.668ZM1016.13 123.976V124.476L1016.13 124.476L1016.13 123.976ZM986.288 153.815H985.788V155.023L986.642 154.168L986.288 153.815ZM1552.9 93.7855H1552.4V94.2855H1552.9V93.7855ZM1395.14 451.854H1394.64V451.863L1394.64 451.873L1395.14 451.854ZM1553.04 93.7855H1553.54V93.2855H1553.04V93.7855ZM406.255 398.226L405.76 398.299L405.85 398.909L406.429 398.694L406.255 398.226ZM398.82 446.293L399.126 445.898L398.666 445.542L398.383 446.05L398.82 446.293ZM365.682 474.454L365.812 474.937L365.812 474.937L365.682 474.454ZM123.282 481.373L123.288 480.873H123.282V481.373ZM70.3284 463.287L70.6341 462.891L70.5038 462.79L70.3392 462.787L70.3284 463.287ZM13.4303 440.285L13.7622 439.911L13.7569 439.906L13.7514 439.901L13.4303 440.285ZM-13.6199 407.083L-13.2039 406.805L-13.2039 406.805L-13.6199 407.083ZM-14.609 405.6L-14.193 405.322L-14.1942 405.321L-14.609 405.6ZM-29.9032 387.848L-30.2318 388.224L-30.2317 388.224L-29.9032 387.848ZM-88.3792 366.302L-88.8536 366.46L-88.7391 366.804L-88.377 366.802L-88.3792 366.302ZM-88.8251 364.886L-88.347 364.74L-88.347 364.74L-88.8251 364.886ZM-89.1682 363.784L-89.6481 363.924L-89.6442 363.936L-89.1682 363.784ZM-89.1986 357.168L-89.682 357.041L-89.6825 357.042L-89.1986 357.168ZM-85.3143 347.67L-85.3575 347.172L-85.6223 347.195L-85.7514 347.427L-85.3143 347.67ZM-44.985 352.222L-45.1385 352.698L-45.1326 352.7L-44.985 352.222ZM1.62595 381.141L1.99225 380.801L1.98634 380.795L1.62595 381.141ZM9.81493 390.609L9.43121 390.93L9.81493 390.609ZM18.0732 400.138L17.7083 400.479L17.7145 400.486L18.0732 400.138ZM39.0118 416.554L38.7543 416.983L39.8224 417.625L39.4941 416.423L39.0118 416.554ZM35.8254 347.791H36.3254V347.348L35.8852 347.295L35.8254 347.791ZM230.432 156.037L229.935 156.09L229.968 156.403L230.265 156.508L230.432 156.037ZM349.241 246.411L349.434 246.872L350.009 246.632L349.65 246.123L349.241 246.411ZM379.038 300.107L379.497 299.909L379.252 299.34L378.747 299.7L379.038 300.107ZM-55.1497 145.477L-55.6401 145.38L-55.759 145.977H-55.1497V145.477ZM38.5273 59.8113H39.0273V59.2564L38.4754 59.314L38.5273 59.8113ZM-1.46828 260.153H-1.96828V260.45L-1.70804 260.592L-1.46828 260.153ZM56.0063 273.05L56.0355 273.549L56.3239 273.532L56.4533 273.274L56.0063 273.05ZM62.0148 261.064L61.568 260.839L61.5678 260.84L62.0148 261.064ZM156.572 160.013L156.825 160.444L157.089 160.289L157.071 159.984L156.572 160.013ZM38.5273 59.8417H38.0273V60.3968L38.5794 60.3389L38.5273 59.8417ZM372.086 285.055L372.021 284.559L372.086 285.055ZM336.096 213.148L335.694 213.446L336.029 213.897L336.438 213.512L336.096 213.148ZM263.479 156.784H262.979V157.108L263.274 157.241L263.479 156.784ZM367.291 123.568L366.795 123.629L366.795 123.629L367.291 123.568ZM280.806 24.7318L280.684 25.2168L280.684 25.2169L280.806 24.7318ZM185.065 40.1475L184.788 39.7312L184.224 40.1064L184.749 40.5348L185.065 40.1475ZM222.61 88.3059L222.168 88.5395L222.309 88.8059H222.61V88.3059ZM-94.2346 348.763L-94.1496 349.256L-93.7346 349.184V348.763H-94.2346ZM-94.2346 348.733H-93.7346L-94.6956 348.539L-94.2346 348.733ZM-109.165 352.556L-109.325 352.082L-109.665 352.197V352.556H-109.165ZM-109.225 352.708L-109.579 352.354L-109.662 352.438L-109.7 352.55L-109.225 352.708ZM-109.423 353.255L-109.891 353.079L-109.891 353.079L-109.423 353.255ZM-109.62 353.8L-110.094 353.642L-110.097 353.652L-109.62 353.8ZM-110.318 356.44L-109.829 356.548L-109.828 356.542L-110.318 356.44ZM-110.834 361.235L-111.334 361.227V361.235H-110.834ZM-110.743 363.966H-110.243V363.941L-110.245 363.916L-110.743 363.966ZM-110.72 364.215L-111.217 364.266V364.266L-110.72 364.215ZM-110.682 364.664H-111.182V364.697L-111.178 364.73L-110.682 364.664ZM-110.439 366.06L-110.929 366.158L-110.929 366.161L-110.439 366.06ZM-109.772 368.7H-109.272V368.622L-109.296 368.547L-109.772 368.7ZM-109.741 368.791L-110.095 369.144L-109.898 369.342L-109.626 369.278L-109.741 368.791ZM-96.116 366.576L-96.0731 367.074L-95.4253 367.018L-95.6456 366.406L-96.116 366.576ZM-96.8139 364.27L-97.3015 364.381L-97.3001 364.386L-96.8139 364.27ZM-96.4498 355.105L-95.9659 355.231L-95.9648 355.226L-96.4498 355.105ZM-116.844 370.854L-116.689 371.33L-116.227 371.179L-116.364 370.713L-116.844 370.854ZM-117.699 355.805L-117.207 355.891L-117.048 354.979L-117.898 355.347L-117.699 355.805ZM-125.948 374.344L-126.413 374.528L-126.22 375.015L-125.743 374.8L-125.948 374.344ZM-127.495 360.689L-127.74 360.253L-127.964 360.378L-127.992 360.633L-127.495 360.689ZM-171.981 415.189L-171.767 414.738L-171.77 414.736L-171.981 415.189ZM-172.892 413.733H-172.392L-172.392 412.525L-173.245 413.379L-172.892 413.733ZM-170.403 414.673L-169.972 414.927L-169.968 414.92L-170.403 414.673ZM-132.623 377.622L-132.386 378.062L-131.986 377.846L-132.162 377.428L-132.623 377.622ZM-135.202 365.483L-134.703 365.465L-134.735 364.558L-135.485 365.071L-135.202 365.483ZM-172.922 413.763L-173.391 413.591L-172.568 414.116L-172.922 413.763ZM806.954 63.9465V64.4465C816.831 64.4465 824.141 66.91 828.986 71.7543C833.83 76.5987 836.293 83.9087 836.293 93.7855H836.793H837.293C837.293 83.7551 834.791 76.1456 829.693 71.0472C824.594 65.9489 816.985 63.4465 806.954 63.4465V63.9465ZM836.793 93.7855L836.293 93.7868L836.601 213.143L837.101 213.142L837.601 213.14L837.293 93.7842L836.793 93.7855ZM837.101 213.142H836.601C836.601 218.184 837.862 222.069 840.477 224.69C843.092 227.311 846.977 228.583 852.042 228.583V228.083V227.583C847.132 227.583 843.547 226.35 841.185 223.984C838.823 221.616 837.601 218.03 837.601 213.142H837.101ZM852.042 228.083V228.583C866.885 228.583 877.92 232.288 885.247 239.615C892.574 246.943 896.279 257.977 896.279 272.82H896.779H897.279C897.279 257.823 893.535 246.489 885.954 238.908C878.373 231.327 867.039 227.583 852.042 227.583V228.083ZM896.779 272.82L896.279 272.819L895.972 436.955L896.471 436.956L896.971 436.957L897.279 272.82L896.779 272.82ZM896.471 436.956H895.971C895.971 451.799 892.267 462.833 884.939 470.16C877.612 477.488 866.578 481.193 851.735 481.193V481.693V482.193C866.731 482.193 878.065 478.449 885.646 470.867C893.228 463.286 896.971 451.952 896.971 436.956H896.471ZM851.735 481.693V481.193H612.979V481.693V482.193H851.735V481.693ZM612.979 481.693V481.193C598.136 481.193 587.102 477.488 579.775 470.16C572.447 462.833 568.742 451.799 568.742 436.956H568.242H567.742C567.742 451.952 571.486 463.286 579.068 470.867C586.649 478.449 597.983 482.193 612.979 482.193V481.693ZM568.242 436.956H568.742V377.278H568.242H567.742V436.956H568.242ZM568.242 377.278H568.742C568.742 367.401 571.206 360.091 576.05 355.247C580.895 350.402 588.205 347.939 598.081 347.939V347.439V346.939C588.051 346.939 580.441 349.441 575.343 354.54C570.245 359.638 567.742 367.248 567.742 377.278H568.242ZM598.081 347.439V347.939C607.958 347.939 615.268 350.402 620.113 355.247C624.957 360.091 627.42 367.401 627.42 377.278H627.92H628.42C628.42 367.248 625.918 359.638 620.82 354.54C615.721 349.441 608.112 346.939 598.081 346.939V347.439ZM627.92 377.278H627.42V392.176H627.92H628.42V377.278H627.92ZM627.92 392.176H627.42C627.42 402.206 629.923 409.816 635.021 414.914C640.119 420.012 647.729 422.515 657.759 422.515V422.015V421.515C647.883 421.515 640.573 419.051 635.728 414.207C630.884 409.362 628.42 402.052 628.42 392.176H627.92ZM657.759 422.015V422.515H747.276V422.015V421.515H657.759V422.015ZM747.276 422.015V422.515C757.307 422.515 764.916 420.012 770.015 414.914C775.113 409.816 777.615 402.206 777.615 392.176H777.115H776.615C776.615 402.052 774.152 409.362 769.308 414.207C764.463 419.051 757.153 421.515 747.276 421.515V422.015ZM777.115 392.176H777.615V93.4779H777.115H776.615V392.176H777.115ZM777.115 93.4779H777.615C777.615 83.7123 780.078 76.4799 784.922 71.6847C789.766 66.8886 797.076 64.4465 806.954 64.4465V63.9465V63.4465C796.925 63.4465 789.316 65.9264 784.218 70.9741C779.119 76.0227 776.615 83.5559 776.615 93.4779H777.115ZM971.083 64.2542L971.083 64.7542L1210.1 64.4465L1210.1 63.9465L1210.1 63.4465L971.082 63.7542L971.083 64.2542ZM1210.1 63.9465L1210.1 64.4465C1224.83 64.534 1235.8 68.3141 1243.09 75.6962C1250.38 83.079 1254.08 94.1479 1254.08 108.991H1254.58H1255.08C1255.08 93.9944 1251.34 82.6292 1243.8 74.9936C1236.26 67.3574 1224.99 63.5349 1210.11 63.4465L1210.1 63.9465ZM1254.58 108.991H1254.08V437.22H1254.58H1255.08V108.991H1254.58ZM1254.58 437.22H1254.08C1254.08 451.973 1250.37 462.964 1243.04 470.298C1235.71 477.632 1224.68 481.391 1209.83 481.5L1209.84 482L1209.84 482.5C1224.84 482.39 1236.17 478.59 1243.75 471.005C1251.33 463.419 1255.08 452.129 1255.08 437.22H1254.58ZM1209.84 482V481.5H971.127V482V482.5H1209.84V482ZM971.127 482V481.5C956.373 481.5 945.382 477.785 938.054 470.446C930.726 463.107 926.978 452.06 926.89 437.217L926.39 437.22L925.89 437.223C925.978 452.219 929.767 463.562 937.347 471.153C944.927 478.745 956.217 482.5 971.127 482.5V482ZM926.39 437.22H926.89V108.991H926.39H925.89V437.22H926.39ZM926.39 108.991H926.89C926.89 94.1481 930.595 83.1025 937.922 75.7641C945.25 68.4259 956.284 64.7102 971.127 64.7102V64.2102V63.7102C956.13 63.7102 944.796 67.4653 937.215 75.0575C929.634 82.6496 925.89 93.9943 925.89 108.991H926.39ZM971.127 64.2102L970.773 63.8569L970.729 63.9008L971.083 64.2542L971.437 64.6075L971.48 64.5635L971.127 64.2102ZM986.332 153.771H985.832V392.483H986.332H986.832V153.771H986.332ZM986.332 392.483L985.832 392.488C985.92 402.517 988.456 410.123 993.508 415.22C998.561 420.318 1006.05 422.822 1015.86 422.822V422.322V421.822C1006.21 421.822 999.02 419.36 994.218 414.516C989.415 409.67 986.919 402.357 986.832 392.479L986.332 392.483ZM1015.86 422.322V422.822H1165.06V422.322V421.822H1015.86V422.322ZM1165.06 422.322V422.822C1175.09 422.822 1182.7 420.32 1187.8 415.221C1192.89 410.123 1195.4 402.514 1195.4 392.483H1194.9H1194.4C1194.4 402.36 1191.93 409.67 1187.09 414.514C1182.24 419.359 1174.94 421.822 1165.06 421.822V422.322ZM1194.9 392.483H1195.4V242.981H1194.9H1194.4V392.483H1194.9ZM1194.9 242.981H1195.4C1195.4 237.938 1194.14 234.063 1191.52 231.453C1188.91 228.844 1185.02 227.583 1179.96 227.583V228.083V228.583C1184.87 228.583 1188.45 229.805 1190.81 232.161C1193.18 234.517 1194.4 238.092 1194.4 242.981H1194.9ZM1179.96 228.083L1179.96 227.583C1165.12 227.496 1154.08 223.758 1146.75 216.468C1139.42 209.178 1135.72 198.253 1135.72 183.61H1135.22H1134.72C1134.72 198.411 1138.46 209.634 1146.05 217.176C1153.63 224.717 1164.96 228.495 1179.95 228.583L1179.96 228.083ZM1135.22 183.61H1135.72V138.874H1135.22H1134.72V183.61H1135.22ZM1135.22 138.874L1135.72 138.863C1135.61 133.821 1134.29 129.922 1131.68 127.263C1129.07 124.601 1125.25 123.258 1120.29 123.169L1120.28 123.668L1120.27 124.168C1125.06 124.255 1128.6 125.549 1130.97 127.963C1133.34 130.379 1134.61 133.995 1134.72 138.885L1135.22 138.874ZM1120.28 123.668L1120.28 123.168L1016.13 123.476L1016.13 123.976L1016.13 124.476L1120.28 124.168L1120.28 123.668ZM1016.13 123.976V123.476C1006.1 123.476 998.487 125.978 993.389 131.077C988.29 136.175 985.788 143.785 985.788 153.815H986.288H986.788C986.788 143.938 989.251 136.628 994.096 131.784C998.94 126.94 1006.25 124.476 1016.13 124.476V123.976ZM986.288 153.815L986.642 154.168L986.686 154.124L986.332 153.771L985.978 153.418L985.934 153.462L986.288 153.815ZM1552.9 93.7855H1553.4C1553.4 83.9087 1555.87 76.5987 1560.71 71.7543C1565.56 66.91 1572.87 64.4465 1582.74 64.4465V63.9465V63.4465C1572.71 63.4465 1565.1 65.9489 1560 71.0472C1554.91 76.1456 1552.4 83.7551 1552.4 93.7855H1552.9ZM1582.74 63.9465V64.4465C1592.62 64.4465 1599.93 66.91 1604.77 71.7543C1609.62 76.5987 1612.08 83.9087 1612.08 93.7855H1612.58H1613.08C1613.08 83.7551 1610.58 76.1456 1605.48 71.0472C1600.38 65.9489 1592.77 63.4465 1582.74 63.4465V63.9465ZM1612.58 93.7855H1612.08V242.981H1612.58H1613.08V93.7855H1612.58ZM1612.58 242.981H1612.08C1612.08 257.823 1608.38 268.869 1601.05 276.207C1593.72 283.545 1582.69 287.261 1567.85 287.261V287.761V288.261C1582.84 288.261 1594.18 284.506 1601.76 276.914C1609.34 269.322 1613.08 257.977 1613.08 242.981H1612.58ZM1567.85 287.761V287.261H1515.64V287.761V288.261H1567.85V287.761ZM1515.64 287.761V287.261C1510.6 287.261 1506.72 288.522 1504.11 291.132C1501.5 293.742 1500.24 297.616 1500.24 302.659H1500.74H1501.24C1501.24 297.77 1502.46 294.195 1504.82 291.839C1507.17 289.483 1510.75 288.261 1515.64 288.261V287.761ZM1500.74 302.659H1500.24V451.854H1500.74H1501.24V302.659H1500.74ZM1500.74 451.854H1500.24C1500.24 461.725 1497.68 469.033 1492.64 473.878C1487.6 478.727 1479.99 481.193 1469.72 481.193V481.693V482.193C1480.14 482.193 1488.04 479.693 1493.34 474.599C1498.64 469.501 1501.24 461.889 1501.24 451.854H1500.74ZM1469.72 481.693V481.193H1426.17V481.693V482.193H1469.72V481.693ZM1426.17 481.693V481.193C1416.29 481.193 1408.88 478.73 1403.83 473.878C1398.79 469.026 1396.03 461.709 1395.64 451.834L1395.14 451.854L1394.64 451.873C1395.04 461.905 1397.84 469.508 1403.14 474.599C1408.43 479.69 1416.13 482.193 1426.17 482.193V481.693ZM1395.14 451.854H1395.64V302.659H1395.14H1394.64V451.854H1395.14ZM1395.14 302.659H1395.64C1395.64 297.616 1394.38 293.742 1391.77 291.132C1389.16 288.522 1385.28 287.261 1380.24 287.261V287.761V288.261C1385.13 288.261 1388.71 289.483 1391.06 291.839C1393.42 294.195 1394.64 297.77 1394.64 302.659H1395.14ZM1380.24 287.761V287.261H1329.22V287.761V288.261H1380.24V287.761ZM1329.22 287.761V287.261C1314.38 287.261 1303.34 283.545 1296.02 276.207C1288.69 268.869 1284.98 257.823 1284.98 242.981H1284.48H1283.98C1283.98 257.977 1287.73 269.322 1295.31 276.914C1302.89 284.506 1314.22 288.261 1329.22 288.261V287.761ZM1284.48 242.981H1284.98V93.7855H1284.48H1283.98V242.981H1284.48ZM1284.48 93.7855H1284.98C1284.98 83.9087 1287.45 76.5987 1292.29 71.7543C1297.14 66.91 1304.45 64.4465 1314.32 64.4465V63.9465V63.4465C1304.29 63.4465 1296.68 65.9489 1291.59 71.0472C1286.49 76.1456 1283.98 83.7551 1283.98 93.7855H1284.48ZM1314.32 63.9465V64.4465C1324.2 64.4465 1331.51 66.8886 1336.36 71.6847C1341.2 76.4799 1343.66 83.7123 1343.66 93.4779H1344.16H1344.66C1344.66 83.5559 1342.16 76.0227 1337.06 70.9741C1331.96 65.9264 1324.35 63.4465 1314.32 63.4465V63.9465ZM1344.16 93.4779H1343.66V198.2H1344.16H1344.66V93.4779H1344.16ZM1344.16 198.2H1343.66C1343.66 208.231 1346.17 215.84 1351.26 220.938C1356.36 226.037 1363.97 228.539 1374 228.539V228.039V227.539C1364.12 227.539 1356.81 225.076 1351.97 220.231C1347.13 215.387 1344.66 208.077 1344.66 198.2H1344.16ZM1374 228.039V228.539H1523.2V228.039V227.539H1374V228.039ZM1523.2 228.039V228.539C1533.23 228.539 1540.84 226.037 1545.94 220.938C1551.03 215.84 1553.54 208.231 1553.54 198.2H1553.04H1552.54C1552.54 208.077 1550.07 215.387 1545.23 220.231C1540.38 225.076 1533.07 227.539 1523.2 227.539V228.039ZM1553.04 198.2H1553.54V93.7855H1553.04H1552.54V198.2H1553.04ZM1553.04 93.7855V93.2855H1552.9V93.7855V94.2855H1553.04V93.7855ZM415.753 396.526V396.026C412.354 396.026 409.079 396.644 406.081 397.757L406.255 398.226L406.429 398.694C409.318 397.622 412.475 397.026 415.753 397.026V396.526ZM415.813 396.526V396.026H415.753V396.526V397.026H415.813V396.526ZM443.61 424.323H444.11C444.11 408.692 431.445 396.026 415.813 396.026V396.526V397.026C430.892 397.026 443.11 409.244 443.11 424.323H443.61ZM415.813 452.12V452.62C431.445 452.62 444.11 439.954 444.11 424.323H443.61H443.11C443.11 439.402 430.892 451.62 415.813 451.62V452.12ZM398.82 446.293L398.514 446.689C403.301 450.395 409.295 452.62 415.813 452.62V452.12V451.62C409.526 451.62 403.746 449.475 399.126 445.898L398.82 446.293ZM365.682 474.454L365.812 474.937C379.968 471.129 391.716 460.091 399.257 446.536L398.82 446.293L398.383 446.05C390.933 459.442 379.376 470.253 365.553 473.971L365.682 474.454ZM123.282 481.373C123.275 481.873 123.276 481.873 123.278 481.873C123.279 481.873 123.282 481.873 123.285 481.873C123.291 481.873 123.301 481.873 123.313 481.873C123.338 481.874 123.376 481.874 123.426 481.875C123.525 481.876 123.674 481.878 123.87 481.88C124.263 481.885 124.846 481.891 125.609 481.899C127.133 481.916 129.374 481.939 132.238 481.965C137.966 482.017 146.188 482.081 156.166 482.127C176.121 482.221 203.098 482.246 231.184 481.975C259.269 481.704 288.468 481.136 312.864 480.042C337.236 478.948 356.88 477.328 365.812 474.937L365.682 474.454L365.553 473.971C356.748 476.329 337.223 477.948 312.819 479.043C288.44 480.136 259.255 480.704 231.174 480.975C203.095 481.246 176.123 481.221 156.171 481.127C146.195 481.081 137.974 481.017 132.247 480.965C129.383 480.939 127.144 480.916 125.62 480.9C124.858 480.891 124.275 480.885 123.882 480.88C123.686 480.878 123.537 480.876 123.438 480.875C123.388 480.874 123.35 480.874 123.325 480.873C123.313 480.873 123.303 480.873 123.297 480.873C123.294 480.873 123.292 480.873 123.29 480.873C123.289 480.873 123.288 480.873 123.282 481.373ZM70.3284 463.287L70.0227 463.682C84.7941 475.097 103.26 481.873 123.282 481.873V481.373V480.873C103.49 480.873 85.2373 474.175 70.6341 462.891L70.3284 463.287ZM13.4303 440.285L13.0985 440.659C30.4225 456.031 50.4731 463.359 70.3176 463.787L70.3284 463.287L70.3392 462.787C50.7344 462.365 30.9108 455.127 13.7622 439.911L13.4303 440.285ZM-13.6199 407.083L-14.0359 407.36C-6.14343 419.197 1.91772 431.293 13.1093 440.668L13.4303 440.285L13.7514 439.901C2.6882 430.634 -5.2979 418.662 -13.2039 406.805L-13.6199 407.083ZM-14.609 405.6L-15.0249 405.877L-14.0359 407.36L-13.6199 407.083L-13.2039 406.805L-14.193 405.322L-14.609 405.6ZM-29.9032 387.848L-30.2317 388.224C-24.3557 393.347 -19.3764 399.41 -15.0238 405.879L-14.609 405.6L-14.1942 405.321C-18.5811 398.801 -23.6159 392.665 -29.5746 387.471L-29.9032 387.848ZM-88.3792 366.302L-88.377 366.802C-67.6733 366.711 -46.976 373.622 -30.2318 388.224L-29.9032 387.848L-29.5745 387.471C-46.514 372.698 -67.451 365.711 -88.3814 365.802L-88.3792 366.302ZM-88.8251 364.886L-89.3032 365.033C-89.1573 365.509 -89.0105 365.989 -88.8536 366.46L-88.3792 366.302L-87.9049 366.144C-88.0573 365.687 -88.2004 365.219 -88.347 364.74L-88.8251 364.886ZM-89.1682 363.784L-89.6442 363.936C-89.5275 364.3 -89.4149 364.667 -89.3032 365.033L-88.8251 364.886L-88.347 364.74C-88.4584 364.376 -88.5729 364.001 -88.6922 363.63L-89.1682 363.784ZM-89.1986 357.168L-89.6825 357.042C-90.3094 359.456 -90.344 361.551 -89.648 363.924L-89.1682 363.784L-88.6884 363.643C-89.3276 361.464 -89.3016 359.554 -88.7146 357.294L-89.1986 357.168ZM-85.3143 347.67L-85.7514 347.427C-87.4377 350.462 -88.79 353.657 -89.682 357.041L-89.1986 357.168L-88.7151 357.296C-87.8471 354.003 -86.529 350.886 -84.8773 347.913L-85.3143 347.67ZM-44.985 352.222L-44.8314 351.746C-58.2489 347.416 -72.0019 346.013 -85.3575 347.172L-85.3143 347.67L-85.2711 348.168C-72.044 347.021 -58.4251 348.41 -45.1385 352.698L-44.985 352.222ZM1.62595 381.141L1.98634 380.795C-10.998 367.292 -27.2753 357.171 -44.8373 351.744L-44.985 352.222L-45.1326 352.7C-27.7365 358.075 -11.6046 368.104 1.26553 381.488L1.62595 381.141ZM9.81493 390.609L10.1986 390.289C7.49553 387.053 4.76343 383.783 1.9922 380.801L1.62595 381.141L1.25967 381.481C4.00975 384.441 6.72472 387.69 9.43121 390.93L9.81493 390.609ZM18.0732 400.138L18.4381 399.796C15.7034 396.878 12.9664 393.602 10.1986 390.289L9.81493 390.609L9.43121 390.93C12.1951 394.238 14.9506 397.537 17.7084 400.479L18.0732 400.138ZM39.0118 416.554L39.2693 416.126C31.6244 411.533 24.4978 406.036 18.4319 399.789L18.0732 400.138L17.7145 400.486C23.8476 406.802 31.0443 412.351 38.7543 416.983L39.0118 416.554ZM35.8254 392.824H35.3254C35.3254 401.094 36.4546 409.088 38.5294 416.686L39.0118 416.554L39.4941 416.423C37.442 408.908 36.3254 401.002 36.3254 392.824H35.8254ZM35.8254 347.791H35.3254V392.824H35.8254H36.3254V347.791H35.8254ZM-117.632 174.518H-118.132C-118.132 264.02 -50.9372 337.849 35.7657 348.288L35.8254 347.791L35.8852 347.295C-50.3213 336.916 -117.132 263.508 -117.132 174.518H-117.632ZM56.8853 0V-0.5C-39.7686 -0.5 -118.132 77.8639 -118.132 174.518H-117.632H-117.132C-117.132 78.4162 -39.2163 0.5 56.8853 0.5V0ZM230.432 156.037L230.929 155.985C221.678 68.0342 147.27 -0.5 56.8853 -0.5V0V0.5C146.753 0.5 220.736 68.6425 229.935 156.09L230.432 156.037ZM349.241 246.411L349.65 246.123C323.079 208.367 285.037 174.866 230.599 155.566L230.432 156.037L230.265 156.508C284.482 175.73 322.364 209.089 348.832 246.698L349.241 246.411ZM330.239 274.932H330.739C330.739 262.293 338.454 251.454 349.434 246.872L349.241 246.411L349.049 245.949C337.71 250.682 329.739 261.875 329.739 274.932H330.239ZM361.131 305.823V305.323C344.346 305.323 330.739 291.717 330.739 274.932H330.239H329.739C329.739 292.269 343.793 306.323 361.131 306.323V305.823ZM379.038 300.107L378.747 299.7C373.778 303.241 367.698 305.323 361.131 305.323V305.823V306.323C367.913 306.323 374.195 304.172 379.328 300.514L379.038 300.107ZM406.255 398.226L406.749 398.153C402.664 370.388 394.756 335.274 379.497 299.909L379.038 300.107L378.579 300.305C393.794 335.569 401.684 370.593 405.76 398.299L406.255 398.226ZM-55.1497 145.477L-54.6593 145.575C-45.749 100.781 -8.32368 65.2012 38.5792 60.3086L38.5273 59.8113L38.4754 59.314C-8.87523 64.2533 -46.6466 100.168 -55.6401 145.38L-55.1497 145.477ZM-21.9212 145.477V144.977H-55.1497V145.477V145.977H-21.9212V145.477ZM-1.46828 165.93H-0.968277C-0.968277 154.365 -10.3565 144.977 -21.9212 144.977V145.477V145.977C-10.9088 145.977 -1.96828 154.918 -1.96828 165.93H-1.46828ZM-1.46828 260.153H-0.968277V165.93H-1.46828H-1.96828V260.153H-1.46828ZM56.0063 273.05L55.9771 272.551C35.3176 273.759 15.6858 268.957 -1.22853 259.714L-1.46828 260.153L-1.70804 260.592C15.3648 269.921 35.1823 274.769 56.0355 273.549L56.0063 273.05ZM62.0148 261.064L61.5678 260.84L55.5593 272.826L56.0063 273.05L56.4533 273.274L62.4618 261.288L62.0148 261.064ZM156.572 160.013L156.318 159.582C115.663 183.513 82.7621 218.664 61.568 260.839L62.0148 261.064L62.4616 261.288C83.5693 219.285 116.336 184.277 156.825 160.444L156.572 160.013ZM38.5273 59.8417L38.5794 60.3389C99.4104 53.9659 152.569 99.6641 156.073 160.042L156.572 160.013L157.071 159.984C153.534 99.0394 99.8764 52.9116 38.4752 59.3444L38.5273 59.8417ZM38.5273 59.8113H38.0273V59.8417H38.5273H39.0273V59.8113H38.5273ZM209.767 401.564V402.064C257.808 402.064 296.753 363.119 296.753 315.079H296.253H295.753C295.753 362.567 257.256 401.064 209.767 401.064V401.564ZM123.282 315.079H122.782C122.782 363.119 161.727 402.064 209.767 402.064V401.564V401.064C162.279 401.064 123.782 362.567 123.782 315.079H123.282ZM209.767 228.594V228.094C161.727 228.094 122.782 267.038 122.782 315.079H123.282H123.782C123.782 267.59 162.279 229.094 209.767 229.094V228.594ZM296.253 315.079H296.753C296.753 267.038 257.808 228.094 209.767 228.094V228.594V229.094C257.256 229.094 295.753 267.59 295.753 315.079H296.253ZM263.449 296.963H263.949C263.949 288.558 257.135 281.745 248.731 281.745V282.245V282.745C256.583 282.745 262.949 289.111 262.949 296.963H263.449ZM263.449 326.398H263.949V296.963H263.449H262.949V326.398H263.449ZM248.731 341.116V341.616C257.135 341.616 263.949 334.803 263.949 326.398H263.449H262.949C262.949 334.25 256.583 340.616 248.731 340.616V341.116ZM234.013 326.398H233.513C233.513 334.803 240.326 341.616 248.731 341.616V341.116V340.616C240.879 340.616 234.513 334.25 234.513 326.398H234.013ZM234.013 296.963H233.513V326.398H234.013H234.513V296.963H234.013ZM248.731 282.245V281.745C240.326 281.745 233.513 288.558 233.513 296.963H234.013H234.513C234.513 289.111 240.879 282.745 248.731 282.745V282.245ZM372.086 285.055L372.021 284.559C371.68 284.604 371.332 284.627 370.978 284.627V285.127V285.627C371.376 285.627 371.767 285.601 372.151 285.551L372.086 285.055ZM372.086 285.055L372.151 285.551C376.558 284.975 379.96 281.2 379.96 276.63H379.46H378.96C378.96 280.693 375.936 284.048 372.021 284.559L372.086 285.055ZM379.46 276.63H379.96V262.55H379.46H378.96V276.63H379.46ZM379.46 262.55H379.96C379.96 257.582 375.94 253.553 370.978 253.553V254.053V254.553C375.386 254.553 378.96 258.132 378.96 262.55H379.46ZM370.978 254.053V253.553C366.017 253.553 361.997 257.582 361.997 262.55H362.497H362.997C362.997 258.132 366.571 254.553 370.978 254.553V254.053ZM370.978 285.127V284.627C366.571 284.627 362.997 281.047 362.997 276.63H362.497H361.997C361.997 281.598 366.017 285.627 370.978 285.627V285.127ZM336.096 213.148L336.497 212.85C314.309 183.003 284.159 165.518 263.684 156.328L263.479 156.784L263.274 157.241C283.668 166.394 313.647 183.79 335.694 213.446L336.096 213.148ZM367.291 123.568L366.795 123.629C370.116 150.458 362.357 172.747 353.759 188.338C349.46 196.133 344.953 202.25 341.523 206.416C339.808 208.499 338.362 210.094 337.347 211.167C336.839 211.703 336.439 212.109 336.167 212.38C336.03 212.515 335.926 212.617 335.856 212.685C335.821 212.718 335.795 212.744 335.778 212.76C335.769 212.768 335.763 212.775 335.758 212.779C335.756 212.781 335.755 212.782 335.754 212.783C335.753 212.783 335.753 212.784 335.753 212.784C335.753 212.784 335.753 212.784 336.096 213.148C336.438 213.512 336.439 213.512 336.439 213.511C336.439 213.511 336.44 213.51 336.441 213.51C336.442 213.509 336.444 213.507 336.446 213.504C336.451 213.5 336.459 213.493 336.468 213.484C336.487 213.466 336.515 213.439 336.552 213.403C336.625 213.333 336.732 213.228 336.872 213.089C337.151 212.811 337.558 212.398 338.073 211.854C339.103 210.766 340.564 209.154 342.295 207.052C345.756 202.848 350.3 196.68 354.635 188.821C363.303 173.103 371.142 150.602 367.787 123.506L367.291 123.568ZM280.806 24.7318L280.684 25.2169C327.18 36.8483 360.932 76.0335 366.795 123.629L367.291 123.568L367.787 123.506C361.875 75.5129 327.836 35.9815 280.927 24.2468L280.806 24.7318ZM185.065 40.1475L185.342 40.5637C199.17 31.3625 217.441 26.1219 235.063 23.8869C252.686 21.6518 269.598 22.4303 280.684 25.2168L280.806 24.7318L280.928 24.2469C269.689 21.422 252.646 20.6489 234.937 22.8948C217.228 25.1408 198.791 30.4137 184.788 39.7312L185.065 40.1475ZM222.61 88.3059L223.052 88.0722C206.819 57.3592 185.842 40.1366 185.381 39.7602L185.065 40.1475L184.749 40.5348C185.158 40.8684 206.022 57.9917 222.168 88.5395L222.61 88.3059ZM243.026 88.3059V87.8059H222.61V88.3059V88.8059H243.026V88.3059ZM263.479 108.759H263.979C263.979 97.1941 254.591 87.8059 243.026 87.8059V88.3059V88.8059C254.038 88.8059 262.979 97.7463 262.979 108.759H263.479ZM263.479 156.784H263.979V108.759H263.479H262.979V156.784H263.479ZM-94.2346 348.763L-94.3196 348.27L-94.3333 348.273L-94.2483 348.765L-94.1634 349.258L-94.1496 349.256L-94.2346 348.763ZM-94.2346 348.733H-94.7346V348.763H-94.2346H-93.7346V348.733H-94.2346ZM-94.2483 348.765L-93.7873 348.959L-93.7736 348.926L-94.2346 348.733L-94.6956 348.539L-94.7094 348.572L-94.2483 348.765ZM-109.165 352.556L-109.005 353.03C-104.178 351.401 -99.2304 350.133 -94.1632 349.258L-94.2483 348.765L-94.3335 348.273C-99.4528 349.157 -104.45 350.437 -109.325 352.082L-109.165 352.556ZM-109.225 352.708L-108.872 353.062C-108.754 352.944 -108.665 352.758 -108.665 352.556H-109.165H-109.665C-109.665 352.506 -109.653 352.469 -109.643 352.446C-109.634 352.426 -109.617 352.392 -109.579 352.354L-109.225 352.708ZM-109.423 353.255L-108.955 353.43C-108.887 353.25 -108.815 353.058 -108.751 352.866L-109.225 352.708L-109.7 352.55C-109.757 352.721 -109.822 352.896 -109.891 353.079L-109.423 353.255ZM-109.62 353.8L-109.145 353.958C-109.088 353.787 -109.023 353.614 -108.955 353.43L-109.423 353.255L-109.891 353.079C-109.959 353.259 -110.03 353.45 -110.094 353.642L-109.62 353.8ZM-110.318 356.44L-109.828 356.542C-109.65 355.682 -109.412 354.819 -109.142 353.948L-109.62 353.8L-110.097 353.652C-110.373 354.541 -110.621 355.438 -110.807 356.339L-110.318 356.44ZM-110.834 361.235L-110.334 361.242C-110.304 359.235 -110.215 358.299 -109.829 356.548L-110.318 356.44L-110.806 356.333C-111.209 358.163 -111.303 359.168 -111.334 361.227L-110.834 361.235ZM-110.743 363.966L-110.245 363.916C-110.333 363.035 -110.334 362.149 -110.334 361.235H-110.834H-111.334C-111.334 362.141 -111.334 363.077 -111.24 364.016L-110.743 363.966ZM-110.72 364.215L-110.223 364.165C-110.229 364.104 -110.234 364.05 -110.238 364.008C-110.24 363.987 -110.241 363.971 -110.242 363.96C-110.243 363.955 -110.243 363.952 -110.243 363.951C-110.243 363.948 -110.243 363.955 -110.243 363.966H-110.743H-111.243C-111.243 364.024 -111.227 364.169 -111.217 364.266L-110.72 364.215ZM-110.682 364.664H-110.182C-110.182 364.56 -110.207 364.317 -110.223 364.165L-110.72 364.215L-111.217 364.266C-111.209 364.352 -111.2 364.443 -111.192 364.522C-111.189 364.561 -111.186 364.595 -111.184 364.623C-111.182 364.653 -111.182 364.665 -111.182 364.664H-110.682ZM-110.439 366.06L-109.949 365.962C-110.039 365.509 -110.128 365.036 -110.186 364.598L-110.682 364.664L-111.178 364.73C-111.115 365.202 -111.021 365.7 -110.929 366.158L-110.439 366.06ZM-109.772 368.7L-109.296 368.547C-109.561 367.722 -109.769 366.832 -109.95 365.959L-110.439 366.06L-110.929 366.161C-110.745 367.048 -110.529 367.978 -110.248 368.853L-109.772 368.7ZM-109.741 368.791L-109.388 368.437C-109.338 368.488 -109.3 368.553 -109.283 368.624C-109.269 368.678 -109.272 368.725 -109.272 368.7H-109.772H-110.272C-110.272 368.738 -110.281 368.959 -110.095 369.144L-109.741 368.791ZM-96.116 366.576L-96.1589 366.078C-100.767 366.474 -105.343 367.237 -109.856 368.304L-109.741 368.791L-109.626 369.278C-105.157 368.221 -100.629 367.466 -96.0731 367.074L-96.116 366.576ZM-96.8139 364.27L-97.3001 364.386C-97.1131 365.165 -96.8647 365.972 -96.5865 366.745L-96.116 366.576L-95.6456 366.406C-95.9135 365.662 -96.1506 364.891 -96.3278 364.153L-96.8139 364.27ZM-96.4498 355.105L-96.9337 354.979C-97.736 358.065 -98.0224 361.215 -97.3015 364.381L-96.8139 364.27L-96.3264 364.158C-97.0014 361.194 -96.7416 358.214 -95.9659 355.231L-96.4498 355.105ZM-94.2483 348.765L-94.7094 348.572C-95.588 350.665 -96.3826 352.775 -96.9349 354.984L-96.4498 355.105L-95.9648 355.226C-95.4303 353.088 -94.6576 351.032 -93.7873 348.959L-94.2483 348.765ZM-116.844 370.854L-116.364 370.713C-117.796 365.852 -118.067 360.843 -117.207 355.891L-117.699 355.805L-118.192 355.72C-119.078 360.821 -118.799 365.986 -117.324 370.996L-116.844 370.854ZM-125.948 374.344L-125.743 374.8C-122.788 373.473 -119.74 372.326 -116.689 371.33L-116.844 370.854L-116.999 370.379C-120.078 371.385 -123.16 372.544 -126.152 373.888L-125.948 374.344ZM-127.495 360.689L-127.992 360.633C-128.515 365.337 -128.118 370.217 -126.413 374.528L-125.948 374.344L-125.483 374.16C-127.115 370.035 -127.507 365.326 -126.998 360.744L-127.495 360.689ZM-117.699 355.805L-117.898 355.347C-121.282 356.81 -124.543 358.456 -127.74 360.253L-127.495 360.689L-127.25 361.125C-124.079 359.342 -120.849 357.713 -117.501 356.264L-117.699 355.805ZM-171.981 415.189L-171.77 414.736C-172.071 414.596 -172.225 414.358 -172.308 414.13C-172.35 414.015 -172.371 413.909 -172.382 413.832C-172.387 413.795 -172.39 413.765 -172.391 413.747C-172.391 413.738 -172.391 413.733 -172.392 413.73C-172.392 413.729 -172.392 413.728 -172.392 413.729C-172.392 413.729 -172.392 413.729 -172.392 413.73C-172.392 413.73 -172.392 413.731 -172.392 413.731C-172.392 413.731 -172.392 413.732 -172.392 413.732C-172.392 413.732 -172.392 413.732 -172.392 413.732C-172.392 413.733 -172.392 413.733 -172.892 413.733C-173.392 413.733 -173.392 413.733 -173.392 413.733C-173.392 413.733 -173.392 413.733 -173.392 413.734C-173.392 413.734 -173.392 413.734 -173.392 413.735C-173.392 413.735 -173.392 413.736 -173.392 413.737C-173.392 413.739 -173.391 413.741 -173.391 413.743C-173.391 413.747 -173.391 413.753 -173.391 413.759C-173.391 413.772 -173.39 413.788 -173.389 413.808C-173.386 413.849 -173.382 413.903 -173.373 413.969C-173.355 414.099 -173.319 414.277 -173.247 414.474C-173.103 414.868 -172.802 415.358 -172.193 415.643L-171.981 415.189ZM-170.403 414.673L-170.834 414.42C-171.023 414.741 -171.453 414.886 -171.767 414.738L-171.981 415.189L-172.195 415.641C-171.356 416.039 -170.39 415.638 -169.972 414.927L-170.403 414.673ZM-132.623 377.622L-132.86 377.181C-148.082 385.387 -161.444 397.895 -170.838 414.426L-170.403 414.673L-169.968 414.92C-160.67 398.557 -147.448 386.182 -132.386 378.062L-132.623 377.622ZM-135.202 365.483L-135.702 365.501C-135.548 369.742 -134.718 373.929 -133.084 377.815L-132.623 377.622L-132.162 377.428C-133.744 373.667 -134.553 369.6 -134.703 365.465L-135.202 365.483ZM-172.922 413.763L-172.452 413.935C-165.055 393.767 -151.65 377.341 -134.92 365.896L-135.202 365.483L-135.485 365.071C-152.378 376.627 -165.919 393.217 -173.391 413.591L-172.922 413.763ZM-172.892 413.733L-173.245 413.379L-173.276 413.41L-172.922 413.763L-172.568 414.116L-172.538 414.086L-172.892 413.733ZM362.497 262.55H361.997V276.63H362.497H362.997V262.55H362.497Z" fill="#EDFFAD" mask="url(#path-1-inside-1_4758_137)"/>
</svg>
